<?xml version="1.0" encoding="utf-8"?>
<!-- Generator: Adobe Illustrator 21.1.0, SVG Export Plug-In . SVG Version: 6.00 Build 0)  -->
<svg version="1.1" id="Layer_1" xmlns="http://www.w3.org/2000/svg" xmlns:xlink="http://www.w3.org/1999/xlink" x="0px" y="0px"
	 viewBox="0 0 383 464" style="enable-background:new 0 0 383 464;" xml:space="preserve">
<style type="text/css">
	.st0{clip-path:url(#SVGID_2_);fill:none;stroke:#CCCCCC;stroke-miterlimit:10;}
	.st1{clip-path:url(#SVGID_4_);}
	.st2{fill:#4A4A49;}
	.st3{font-family:'OpenSans-Semibold';}
	.st4{font-size:17.783px;}
	.st5{clip-path:url(#SVGID_6_);}
	.st6{clip-path:url(#SVGID_8_);}
	.st7{clip-path:url(#SVGID_10_);}
	.st8{clip-path:url(#SVGID_12_);}
	.st9{clip-path:url(#SVGID_14_);}
	.st10{clip-path:url(#SVGID_16_);}
	.st11{clip-path:url(#SVGID_18_);fill:none;stroke:#CCCCCC;stroke-miterlimit:10;}
	.st12{clip-path:url(#SVGID_20_);fill:none;stroke:#CCCCCC;stroke-miterlimit:10;}
	.st13{clip-path:url(#SVGID_22_);fill:none;stroke:#CCCCCC;stroke-miterlimit:10;}
	.st14{clip-path:url(#SVGID_24_);fill:none;stroke:#CCCCCC;stroke-miterlimit:10;}
	.st15{clip-path:url(#SVGID_26_);fill:none;stroke:#CCCCCC;stroke-miterlimit:10;}
	.st16{opacity:0.9;}
	.st17{clip-path:url(#SVGID_31_);}
	.st18{clip-path:url(#SVGID_32_);}
	.st19{clip-path:url(#SVGID_33_);}
	.st20{clip-path:url(#SVGID_34_);fill:#007F42;}
	.st21{clip-path:url(#SVGID_34_);fill:#54808E;}
	.st22{clip-path:url(#SVGID_34_);fill:#015B77;}
	.st23{clip-path:url(#SVGID_34_);fill:#98000D;}
	.st24{enable-background:new    ;}
	.st25{fill:#007F42;}
	.st26{fill:#54808E;}
	.st27{fill:#015B6F;}
	.st28{fill:#9F000D;}
</style>
<g>
	<g>
		<defs>
			<rect id="SVGID_1_" x="-213" y="9" width="596" height="443"/>
		</defs>
		<clipPath id="SVGID_2_">
			<use xlink:href="#SVGID_1_"  style="overflow:visible;"/>
		</clipPath>
		<line class="st0" x1="94.6" y1="390.8" x2="180.9" y2="390.8"/>
	</g>
	<g>
		<defs>
			<rect id="SVGID_3_" x="-213" y="9" width="596" height="443"/>
		</defs>
		<clipPath id="SVGID_4_">
			<use xlink:href="#SVGID_3_"  style="overflow:visible;"/>
		</clipPath>
		<g class="st1">
			<text transform="matrix(1 0 0 1 74.5439 398.4473)" class="st2 st3 st4">0</text>
		</g>
	</g>
	<g>
		<defs>
			<rect id="SVGID_5_" x="-213" y="9" width="596" height="443"/>
		</defs>
		<clipPath id="SVGID_6_">
			<use xlink:href="#SVGID_5_"  style="overflow:visible;"/>
		</clipPath>
		<g class="st5">
			<text transform="matrix(1 0 0 1 64.3896 335.2109)" class="st2 st3 st4">20</text>
		</g>
	</g>
	<g>
		<defs>
			<rect id="SVGID_7_" x="-213" y="9" width="596" height="443"/>
		</defs>
		<clipPath id="SVGID_8_">
			<use xlink:href="#SVGID_7_"  style="overflow:visible;"/>
		</clipPath>
		<g class="st6">
			<text transform="matrix(1 0 0 1 64.3896 271.9922)" class="st2 st3 st4">40</text>
		</g>
	</g>
	<g>
		<defs>
			<rect id="SVGID_9_" x="-213" y="9" width="596" height="443"/>
		</defs>
		<clipPath id="SVGID_10_">
			<use xlink:href="#SVGID_9_"  style="overflow:visible;"/>
		</clipPath>
		<g class="st7">
			<text transform="matrix(1 0 0 1 64.3896 208.7559)" class="st2 st3 st4">60</text>
		</g>
	</g>
	<g>
		<defs>
			<rect id="SVGID_11_" x="-213" y="9" width="596" height="443"/>
		</defs>
		<clipPath id="SVGID_12_">
			<use xlink:href="#SVGID_11_"  style="overflow:visible;"/>
		</clipPath>
		<g class="st8">
			<text transform="matrix(1 0 0 1 64.3896 145.5195)" class="st2 st3 st4">80</text>
		</g>
	</g>
	<g>
		<defs>
			<rect id="SVGID_13_" x="-213" y="9" width="596" height="443"/>
		</defs>
		<clipPath id="SVGID_14_">
			<use xlink:href="#SVGID_13_"  style="overflow:visible;"/>
		</clipPath>
		<g class="st9">
			<text transform="matrix(1 0 0 1 54.2358 82.2832)" class="st2 st3 st4">100</text>
		</g>
	</g>
	<g>
		<defs>
			<rect id="SVGID_15_" x="-213" y="9" width="596" height="443"/>
		</defs>
		<clipPath id="SVGID_16_">
			<use xlink:href="#SVGID_15_"  style="overflow:visible;"/>
		</clipPath>
		<g class="st10">
			<text transform="matrix(1 0 0 1 69.3691 51.2876)" class="st2 st3 st4">%</text>
		</g>
	</g>
	<g>
		<defs>
			<rect id="SVGID_17_" x="-213" y="9" width="596" height="443"/>
		</defs>
		<clipPath id="SVGID_18_">
			<use xlink:href="#SVGID_17_"  style="overflow:visible;"/>
		</clipPath>
		<line class="st11" x1="94.6" y1="327.6" x2="180.9" y2="327.6"/>
	</g>
	<g>
		<defs>
			<rect id="SVGID_19_" x="-213" y="9" width="596" height="443"/>
		</defs>
		<clipPath id="SVGID_20_">
			<use xlink:href="#SVGID_19_"  style="overflow:visible;"/>
		</clipPath>
		<line class="st12" x1="94.6" y1="264.3" x2="180.9" y2="264.3"/>
	</g>
	<g>
		<defs>
			<rect id="SVGID_21_" x="-213" y="9" width="596" height="443"/>
		</defs>
		<clipPath id="SVGID_22_">
			<use xlink:href="#SVGID_21_"  style="overflow:visible;"/>
		</clipPath>
		<line class="st13" x1="94.6" y1="201.1" x2="180.9" y2="201.1"/>
	</g>
	<g>
		<defs>
			<rect id="SVGID_23_" x="-213" y="9" width="596" height="443"/>
		</defs>
		<clipPath id="SVGID_24_">
			<use xlink:href="#SVGID_23_"  style="overflow:visible;"/>
		</clipPath>
		<line class="st14" x1="94.6" y1="137.9" x2="180.9" y2="137.9"/>
	</g>
	<g>
		<defs>
			<rect id="SVGID_25_" x="-213" y="9" width="596" height="443"/>
		</defs>
		<clipPath id="SVGID_26_">
			<use xlink:href="#SVGID_25_"  style="overflow:visible;"/>
		</clipPath>
		<line class="st15" x1="94.6" y1="74.6" x2="180.9" y2="74.6"/>
	</g>
	<g>
		<g>
			<g>
				<g>
					<g class="st16">
						<g>
							<defs>
								<rect id="SVGID_27_" x="101.1" y="74.5" width="73.4" height="316.3"/>
							</defs>
							<defs>
								<rect id="SVGID_28_" x="101.1" y="74.5" width="73.4" height="316.3"/>
							</defs>
							<defs>
								<rect id="SVGID_29_" x="101.1" y="74.5" width="73.4" height="316.3"/>
							</defs>
							<defs>
								<rect id="SVGID_30_" x="101.1" y="74.5" width="73.4" height="316.3"/>
							</defs>
							<clipPath id="SVGID_31_">
								<use xlink:href="#SVGID_27_"  style="overflow:visible;"/>
							</clipPath>
							<clipPath id="SVGID_32_" class="st17">
								<use xlink:href="#SVGID_28_"  style="overflow:visible;"/>
							</clipPath>
							<clipPath id="SVGID_33_" class="st18">
								<use xlink:href="#SVGID_29_"  style="overflow:visible;"/>
							</clipPath>
							<clipPath id="SVGID_34_" class="st19">
								<use xlink:href="#SVGID_30_"  style="overflow:visible;"/>
							</clipPath>
							<rect x="101.1" y="74.5" class="st20" width="73.4" height="110.6"/>
							<rect x="101.1" y="185.1" class="st21" width="73.4" height="138.8"/>
							<rect x="101.1" y="323.9" class="st22" width="73.4" height="60.1"/>
							<rect x="101.1" y="384" class="st23" width="73.4" height="8.8"/>
						</g>
					</g>
				</g>
			</g>
			<g>
				<g>
					<g class="st24">
						<path class="st2" d="M204.4,87.2V74.5h2.1v12.7H204.4z"/>
						<path class="st2" d="M217.7,87.2h-2v-5.9c0-0.7-0.1-1.3-0.4-1.6c-0.3-0.4-0.7-0.5-1.3-0.5c-0.8,0-1.4,0.3-1.7,0.8
							c-0.4,0.5-0.6,1.4-0.6,2.6v4.8h-2v-9.6h1.6l0.3,1.3h0.1c0.3-0.5,0.7-0.8,1.2-1.1c0.5-0.2,1.1-0.4,1.7-0.4
							c1.5,0,2.5,0.5,2.9,1.5h0.1c0.3-0.5,0.7-0.8,1.2-1.1c0.5-0.3,1.1-0.4,1.8-0.4c1.1,0,2,0.3,2.5,0.9c0.5,0.6,0.8,1.5,0.8,2.6
							v6.3h-2v-5.9c0-0.7-0.1-1.3-0.4-1.6c-0.3-0.4-0.7-0.5-1.3-0.5c-0.8,0-1.4,0.2-1.7,0.7c-0.4,0.5-0.6,1.3-0.6,2.3V87.2z"/>
						<path class="st2" d="M231.5,87.4c-1.2,0-2.2-0.4-2.8-1.3h-0.1c0.1,0.8,0.1,1.3,0.1,1.5v3.9h-2V77.6h1.6c0,0.2,0.1,0.6,0.3,1.3
							h0.1c0.6-1,1.6-1.5,2.9-1.5c1.2,0,2.1,0.4,2.8,1.3c0.7,0.9,1,2.1,1,3.7c0,1.6-0.3,2.8-1,3.7C233.6,86.9,232.7,87.4,231.5,87.4
							z M231,79.1c-0.8,0-1.4,0.2-1.8,0.7c-0.4,0.5-0.6,1.2-0.6,2.3v0.3c0,1.2,0.2,2,0.6,2.5c0.4,0.5,1,0.8,1.8,0.8
							c0.7,0,1.2-0.3,1.6-0.9c0.4-0.6,0.6-1.4,0.6-2.5c0-1.1-0.2-1.9-0.6-2.4C232.2,79.4,231.7,79.1,231,79.1z"/>
						<path class="st2" d="M242.5,77.4c0.4,0,0.7,0,1,0.1l-0.2,1.9c-0.3-0.1-0.6-0.1-0.9-0.1c-0.8,0-1.5,0.3-2,0.8
							c-0.5,0.5-0.8,1.2-0.8,2.1v5h-2v-9.6h1.6l0.3,1.7h0.1c0.3-0.6,0.7-1,1.2-1.4C241.4,77.6,241.9,77.4,242.5,77.4z"/>
						<path class="st2" d="M253.8,82.4c0,1.6-0.4,2.8-1.2,3.7s-1.9,1.3-3.4,1.3c-0.9,0-1.7-0.2-2.4-0.6c-0.7-0.4-1.2-1-1.6-1.7
							c-0.4-0.8-0.6-1.6-0.6-2.6c0-1.6,0.4-2.8,1.2-3.6s1.9-1.3,3.4-1.3c1.4,0,2.5,0.4,3.3,1.3S253.8,80.9,253.8,82.4z M246.9,82.4
							c0,2.2,0.8,3.3,2.5,3.3c1.6,0,2.4-1.1,2.4-3.3c0-2.2-0.8-3.3-2.4-3.3c-0.9,0-1.5,0.3-1.9,0.9C247,80.5,246.9,81.3,246.9,82.4z
							"/>
						<path class="st2" d="M258.4,87.2l-3.6-9.6h2.2l2,5.6c0.3,0.9,0.5,1.7,0.6,2.3h0.1c0.1-0.4,0.3-1.2,0.6-2.3l2-5.6h2.2l-3.7,9.6
							H258.4z"/>
						<path class="st2" d="M269.9,87.4c-1.5,0-2.7-0.4-3.5-1.3c-0.8-0.9-1.3-2.1-1.3-3.6c0-1.6,0.4-2.8,1.2-3.7
							c0.8-0.9,1.9-1.3,3.2-1.3c1.3,0,2.3,0.4,3,1.2c0.7,0.8,1.1,1.8,1.1,3.2v1.1h-6.4c0,0.9,0.3,1.6,0.8,2.1s1.1,0.8,2,0.8
							c0.6,0,1.1-0.1,1.6-0.2c0.5-0.1,1-0.3,1.6-0.5v1.7c-0.5,0.2-1,0.4-1.5,0.5C271.1,87.3,270.6,87.4,269.9,87.4z M269.5,79
							c-0.6,0-1.2,0.2-1.6,0.6s-0.6,1-0.7,1.8h4.4c0-0.8-0.2-1.4-0.6-1.8S270.2,79,269.5,79z"/>
						<path class="st2" d="M279.2,87.4c-1.2,0-2.1-0.4-2.8-1.3c-0.7-0.9-1-2.1-1-3.7c0-1.6,0.3-2.8,1-3.7c0.7-0.9,1.6-1.3,2.8-1.3
							c1.3,0,2.2,0.5,2.9,1.4h0.1c-0.1-0.7-0.1-1.2-0.1-1.6v-3.5h2v13.5h-1.6l-0.4-1.3h-0.1C281.4,86.9,280.5,87.4,279.2,87.4z
							 M279.7,85.7c0.8,0,1.5-0.2,1.8-0.7s0.6-1.2,0.6-2.3v-0.3c0-1.2-0.2-2.1-0.6-2.6c-0.4-0.5-1-0.8-1.8-0.8
							c-0.7,0-1.3,0.3-1.7,0.9c-0.4,0.6-0.6,1.4-0.6,2.5c0,1.1,0.2,1.9,0.6,2.4C278.4,85.4,279,85.7,279.7,85.7z"/>
					</g>
				</g>
			</g>
			<g>
				<g>
					<g class="st24">
						<path class="st25" d="M217.9,100.6c0,1.4-0.4,2.6-1.3,3.6c-0.9,1-2.1,1.7-3.6,2v0.1c1.8,0.2,3.2,0.8,4.2,1.7s1.4,2.1,1.4,3.6
							c0,2.2-0.8,3.9-2.4,5.1c-1.6,1.2-3.8,1.8-6.8,1.8c-2.5,0-4.6-0.4-6.5-1.2v-4.1c0.9,0.4,1.8,0.8,2.9,1.1
							c1.1,0.3,2.1,0.4,3.1,0.4c1.6,0,2.8-0.3,3.5-0.8c0.8-0.5,1.1-1.4,1.1-2.6c0-1.1-0.4-1.8-1.3-2.3c-0.9-0.4-2.3-0.7-4.2-0.7
							h-1.7v-3.7h1.8c1.8,0,3-0.2,3.9-0.7c0.8-0.5,1.2-1.2,1.2-2.4c0-1.7-1.1-2.6-3.2-2.6c-0.7,0-1.5,0.1-2.3,0.4s-1.6,0.7-2.6,1.3
							l-2.2-3.3c2.1-1.5,4.5-2.2,7.4-2.2c2.3,0,4.2,0.5,5.6,1.4C217.3,97.6,217.9,98.9,217.9,100.6z"/>
						<path class="st25" d="M229.4,103.7c2.2,0,3.9,0.6,5.2,1.8c1.3,1.2,1.9,2.9,1.9,5.1c0,2.5-0.8,4.5-2.3,5.9
							c-1.6,1.4-3.8,2-6.7,2c-2.5,0-4.6-0.4-6.1-1.2v-4.1c0.8,0.4,1.8,0.8,2.9,1.1c1.1,0.3,2.1,0.4,3.1,0.4c2.9,0,4.4-1.2,4.4-3.6
							c0-2.3-1.5-3.4-4.5-3.4c-0.5,0-1.2,0.1-1.8,0.2c-0.7,0.1-1.2,0.2-1.6,0.3l-1.9-1l0.9-11.6H235v4.1h-8.1l-0.4,4.5l0.5-0.1
							C227.7,103.8,228.4,103.7,229.4,103.7z"/>
						<path class="st25" d="M249.7,102.3c0,2.4-0.5,4.2-1.4,5.4c-0.9,1.2-2.3,1.8-4.1,1.8c-1.7,0-3-0.6-4-1.8
							c-0.9-1.2-1.4-3-1.4-5.3c0-4.7,1.8-7.1,5.4-7.1c1.7,0,3.1,0.6,4,1.8S249.7,100,249.7,102.3z M242.9,102.3
							c0,1.3,0.1,2.3,0.3,2.9s0.6,1,1.1,1c1,0,1.5-1.3,1.5-3.9c0-2.6-0.5-3.9-1.5-3.9c-0.5,0-0.9,0.3-1.1,1
							C243,100,242.9,101,242.9,102.3z M260.4,95.5l-12.6,22.7h-3.7l12.6-22.7H260.4z M265.6,111.3c0,2.4-0.5,4.2-1.4,5.3
							c-0.9,1.2-2.3,1.8-4.1,1.8c-1.7,0-3-0.6-4-1.8c-0.9-1.2-1.4-3-1.4-5.3c0-4.7,1.8-7.1,5.4-7.1c1.7,0,3.1,0.6,4,1.8
							C265.2,107.3,265.6,109.1,265.6,111.3z M258.8,111.4c0,1.3,0.1,2.3,0.3,2.9s0.6,1,1.1,1c1,0,1.5-1.3,1.5-3.9
							c0-2.6-0.5-3.9-1.5-3.9c-0.5,0-0.9,0.3-1.1,1C258.9,109.1,258.8,110.1,258.8,111.4z"/>
					</g>
				</g>
			</g>
			<g>
				<g>
					<g class="st24">
						<path class="st2" d="M214.9,197.1h-2.5l-6.2-10.1h-0.1l0,0.6c0.1,1.1,0.1,2.1,0.1,3v6.6h-1.9v-12.7h2.5l6.2,10.1h0.1
							c0-0.1,0-0.6-0.1-1.5c0-0.8-0.1-1.5-0.1-2v-6.7h1.9V197.1z"/>
						<path class="st2" d="M226.6,192.3c0,1.6-0.4,2.8-1.2,3.7s-1.9,1.3-3.4,1.3c-0.9,0-1.7-0.2-2.4-0.6c-0.7-0.4-1.2-1-1.6-1.7
							c-0.4-0.8-0.6-1.6-0.6-2.6c0-1.6,0.4-2.8,1.2-3.6s1.9-1.3,3.4-1.3c1.4,0,2.5,0.4,3.3,1.3S226.6,190.8,226.6,192.3z
							 M219.6,192.3c0,2.2,0.8,3.3,2.5,3.3c1.6,0,2.4-1.1,2.4-3.3c0-2.2-0.8-3.3-2.4-3.3c-0.9,0-1.5,0.3-1.9,0.9
							S219.6,191.2,219.6,192.3z"/>
						<path class="st2" d="M242.1,192.3c0,1.6-0.4,2.8-1.2,3.7s-1.9,1.3-3.4,1.3c-0.9,0-1.7-0.2-2.4-0.6c-0.7-0.4-1.2-1-1.6-1.7
							c-0.4-0.8-0.6-1.6-0.6-2.6c0-1.6,0.4-2.8,1.2-3.6s1.9-1.3,3.4-1.3c1.4,0,2.5,0.4,3.3,1.3S242.1,190.8,242.1,192.3z
							 M235.1,192.3c0,2.2,0.8,3.3,2.5,3.3c1.6,0,2.4-1.1,2.4-3.3c0-2.2-0.8-3.3-2.4-3.3c-0.9,0-1.5,0.3-1.9,0.9
							C235.3,190.4,235.1,191.2,235.1,192.3z"/>
						<path class="st2" d="M246.6,197.1l-3.6-9.6h2.2l2,5.6c0.3,0.9,0.5,1.7,0.6,2.3h0.1c0.1-0.4,0.3-1.2,0.6-2.3l2-5.6h2.2
							l-3.7,9.6H246.6z"/>
						<path class="st2" d="M258.1,197.3c-1.5,0-2.7-0.4-3.5-1.3c-0.8-0.9-1.3-2.1-1.3-3.6c0-1.6,0.4-2.8,1.2-3.7
							c0.8-0.9,1.9-1.3,3.2-1.3c1.3,0,2.3,0.4,3,1.2c0.7,0.8,1.1,1.8,1.1,3.2v1.1h-6.4c0,0.9,0.3,1.6,0.8,2.1s1.1,0.8,2,0.8
							c0.6,0,1.1-0.1,1.6-0.2c0.5-0.1,1-0.3,1.6-0.5v1.7c-0.5,0.2-1,0.4-1.5,0.5C259.4,197.2,258.8,197.3,258.1,197.3z M257.8,188.9
							c-0.6,0-1.2,0.2-1.6,0.6s-0.6,1-0.7,1.8h4.4c0-0.8-0.2-1.4-0.6-1.8S258.4,188.9,257.8,188.9z"/>
						<path class="st2" d="M269.1,187.3c0.4,0,0.8,0,1,0.1l-0.2,1.9c-0.3-0.1-0.6-0.1-0.9-0.1c-0.8,0-1.5,0.3-2,0.8
							c-0.5,0.5-0.8,1.2-0.8,2.1v5h-2v-9.6h1.6l0.3,1.7h0.1c0.3-0.6,0.7-1,1.2-1.4C267.9,187.5,268.5,187.3,269.1,187.3z"/>
						<path class="st2" d="M277.9,197.1l-0.4-1.3h-0.1c-0.5,0.6-0.9,1-1.4,1.2c-0.5,0.2-1.1,0.3-1.8,0.3c-0.9,0-1.7-0.3-2.2-0.8
							c-0.5-0.5-0.8-1.2-0.8-2.2c0-1,0.4-1.7,1.1-2.2c0.7-0.5,1.9-0.8,3.4-0.8l1.7-0.1v-0.5c0-0.6-0.1-1.1-0.4-1.4
							c-0.3-0.3-0.7-0.5-1.3-0.5c-0.5,0-1,0.1-1.4,0.2c-0.5,0.1-0.9,0.3-1.3,0.5l-0.7-1.5c0.5-0.3,1.1-0.5,1.7-0.6
							c0.6-0.1,1.2-0.2,1.8-0.2c1.2,0,2.1,0.3,2.8,0.8c0.6,0.5,0.9,1.4,0.9,2.5v6.5H277.9z M274.8,195.7c0.7,0,1.3-0.2,1.8-0.6
							c0.4-0.4,0.7-1,0.7-1.7v-0.8l-1.2,0.1c-1,0-1.7,0.2-2.1,0.5c-0.4,0.3-0.7,0.7-0.7,1.3c0,0.4,0.1,0.8,0.4,1
							S274.3,195.7,274.8,195.7z"/>
						<path class="st2" d="M284.2,197.1h-2v-13.5h2V197.1z"/>
						<path class="st2" d="M289.2,197.1h-2v-13.5h2V197.1z"/>
						<path class="st2" d="M300.6,197.3c-1.5,0-2.6-0.4-3.3-1.3c-0.8-0.8-1.1-2.1-1.1-3.7c0-1.6,0.4-2.9,1.2-3.7s1.9-1.3,3.4-1.3
							c1,0,1.9,0.2,2.7,0.6l-0.6,1.6c-0.9-0.3-1.6-0.5-2.1-0.5c-1.7,0-2.5,1.1-2.5,3.3c0,1.1,0.2,1.9,0.6,2.4s1,0.8,1.8,0.8
							c0.9,0,1.8-0.2,2.6-0.7v1.8c-0.4,0.2-0.8,0.4-1.2,0.5C301.7,197.2,301.2,197.3,300.6,197.3z"/>
						<path class="st2" d="M314,197.1h-2v-5.9c0-0.7-0.1-1.3-0.4-1.7c-0.3-0.4-0.8-0.5-1.4-0.5c-0.9,0-1.5,0.3-1.9,0.8
							c-0.4,0.5-0.6,1.4-0.6,2.6v4.8h-2v-13.5h2v3.4c0,0.5,0,1.1-0.1,1.8h0.1c0.3-0.5,0.7-0.8,1.2-1.1c0.5-0.3,1.1-0.4,1.7-0.4
							c2.3,0,3.5,1.2,3.5,3.5V197.1z"/>
						<path class="st2" d="M322.8,197.1l-0.4-1.3h-0.1c-0.5,0.6-0.9,1-1.4,1.2c-0.5,0.2-1.1,0.3-1.8,0.3c-0.9,0-1.7-0.3-2.2-0.8
							c-0.5-0.5-0.8-1.2-0.8-2.2c0-1,0.4-1.7,1.1-2.2c0.7-0.5,1.9-0.8,3.4-0.8l1.7-0.1v-0.5c0-0.6-0.1-1.1-0.4-1.4
							c-0.3-0.3-0.7-0.5-1.3-0.5c-0.5,0-1,0.1-1.4,0.2c-0.5,0.1-0.9,0.3-1.3,0.5l-0.7-1.5c0.5-0.3,1.1-0.5,1.7-0.6
							c0.6-0.1,1.2-0.2,1.8-0.2c1.2,0,2.1,0.3,2.8,0.8c0.6,0.5,0.9,1.4,0.9,2.5v6.5H322.8z M319.8,195.7c0.7,0,1.3-0.2,1.8-0.6
							c0.4-0.4,0.7-1,0.7-1.7v-0.8l-1.2,0.1c-1,0-1.7,0.2-2.1,0.5c-0.4,0.3-0.7,0.7-0.7,1.3c0,0.4,0.1,0.8,0.4,1
							S319.3,195.7,319.8,195.7z"/>
						<path class="st2" d="M335.6,197.1h-2v-5.9c0-0.7-0.1-1.3-0.4-1.7c-0.3-0.4-0.8-0.5-1.4-0.5c-0.9,0-1.5,0.3-1.9,0.8
							c-0.4,0.5-0.6,1.4-0.6,2.6v4.8h-2v-9.6h1.6l0.3,1.3h0.1c0.3-0.5,0.7-0.8,1.2-1.1c0.5-0.2,1.1-0.4,1.8-0.4
							c2.3,0,3.5,1.2,3.5,3.5V197.1z"/>
						<path class="st2" d="M346.5,187.5v1.1l-1.6,0.3c0.2,0.2,0.3,0.5,0.4,0.7s0.1,0.6,0.1,0.9c0,1-0.3,1.8-1,2.3
							c-0.7,0.6-1.6,0.9-2.8,0.9c-0.3,0-0.6,0-0.8-0.1c-0.4,0.3-0.7,0.6-0.7,1c0,0.2,0.1,0.4,0.3,0.5c0.2,0.1,0.6,0.2,1.1,0.2h1.7
							c1.1,0,1.9,0.2,2.4,0.7c0.5,0.5,0.8,1.1,0.8,2c0,1.1-0.4,1.9-1.3,2.5c-0.9,0.6-2.2,0.9-3.9,0.9c-1.3,0-2.3-0.2-3-0.7
							c-0.7-0.5-1-1.1-1-2c0-0.6,0.2-1.1,0.6-1.5c0.4-0.4,0.9-0.7,1.6-0.8c-0.3-0.1-0.5-0.3-0.7-0.6c-0.2-0.3-0.3-0.5-0.3-0.8
							c0-0.4,0.1-0.7,0.3-0.9c0.2-0.2,0.5-0.5,0.9-0.7c-0.5-0.2-0.9-0.6-1.2-1c-0.3-0.5-0.5-1-0.5-1.7c0-1,0.3-1.8,1-2.4
							c0.7-0.6,1.6-0.9,2.8-0.9c0.3,0,0.6,0,0.9,0.1c0.3,0,0.5,0.1,0.7,0.1H346.5z M339,198.6c0,0.4,0.2,0.8,0.6,1
							c0.4,0.2,1,0.4,1.7,0.4c1.1,0,1.9-0.2,2.5-0.5s0.8-0.7,0.8-1.3c0-0.4-0.1-0.7-0.4-0.9c-0.3-0.2-0.9-0.3-1.7-0.3h-1.5
							c-0.6,0-1,0.1-1.4,0.4C339.1,197.7,339,198.1,339,198.6z M339.8,190.6c0,0.6,0.2,1.1,0.5,1.4s0.8,0.5,1.3,0.5
							c1.2,0,1.8-0.6,1.8-1.9c0-0.6-0.1-1.1-0.4-1.4s-0.7-0.5-1.3-0.5c-0.6,0-1,0.2-1.3,0.5C340,189.5,339.8,190,339.8,190.6z"/>
						<path class="st2" d="M352.5,197.3c-1.5,0-2.7-0.4-3.5-1.3c-0.8-0.9-1.3-2.1-1.3-3.6c0-1.6,0.4-2.8,1.2-3.7
							c0.8-0.9,1.9-1.3,3.2-1.3c1.3,0,2.3,0.4,3,1.2c0.7,0.8,1.1,1.8,1.1,3.2v1.1h-6.4c0,0.9,0.3,1.6,0.8,2.1s1.1,0.8,2,0.8
							c0.6,0,1.1-0.1,1.6-0.2c0.5-0.1,1-0.3,1.6-0.5v1.7c-0.5,0.2-1,0.4-1.5,0.5C353.7,197.2,353.1,197.3,352.5,197.3z M352.1,188.9
							c-0.6,0-1.2,0.2-1.6,0.6s-0.6,1-0.7,1.8h4.4c0-0.8-0.2-1.4-0.6-1.8S352.8,188.9,352.1,188.9z"/>
					</g>
				</g>
			</g>
			<g>
				<g>
					<g class="st24">
						<path class="st26" d="M219.3,223.4h-2.7v4.7h-4.7v-4.7h-9.7v-3.3l9.9-14.6h4.4v14.3h2.7V223.4z M211.9,219.7v-3.8
							c0-0.6,0-1.6,0.1-2.8c0.1-1.2,0.1-1.9,0.1-2.1H212c-0.4,0.8-0.8,1.7-1.4,2.5l-4.2,6.3H211.9z"/>
						<path class="st26" d="M237.5,223.4h-2.7v4.7h-4.7v-4.7h-9.7v-3.3l9.9-14.6h4.4v14.3h2.7V223.4z M230.1,219.7v-3.8
							c0-0.6,0-1.6,0.1-2.8c0.1-1.2,0.1-1.9,0.1-2.1h-0.1c-0.4,0.8-0.8,1.7-1.4,2.5l-4.2,6.3H230.1z"/>
						<path class="st26" d="M249.7,212.2c0,2.4-0.5,4.2-1.4,5.4c-0.9,1.2-2.3,1.8-4.1,1.8c-1.7,0-3-0.6-4-1.8
							c-0.9-1.2-1.4-3-1.4-5.3c0-4.7,1.8-7.1,5.4-7.1c1.7,0,3.1,0.6,4,1.8S249.7,209.9,249.7,212.2z M242.9,212.2
							c0,1.3,0.1,2.3,0.3,2.9s0.6,1,1.1,1c1,0,1.5-1.3,1.5-3.9c0-2.6-0.5-3.9-1.5-3.9c-0.5,0-0.9,0.3-1.1,1
							C243,209.9,242.9,210.9,242.9,212.2z M260.4,205.4l-12.6,22.7h-3.7l12.6-22.7H260.4z M265.6,221.2c0,2.4-0.5,4.2-1.4,5.3
							c-0.9,1.2-2.3,1.8-4.1,1.8c-1.7,0-3-0.6-4-1.8c-0.9-1.2-1.4-3-1.4-5.3c0-4.7,1.8-7.1,5.4-7.1c1.7,0,3.1,0.6,4,1.8
							C265.2,217.2,265.6,219,265.6,221.2z M258.8,221.3c0,1.3,0.1,2.3,0.3,2.9s0.6,1,1.1,1c1,0,1.5-1.3,1.5-3.9
							c0-2.6-0.5-3.9-1.5-3.9c-0.5,0-0.9,0.3-1.1,1C258.9,219,258.8,220,258.8,221.3z"/>
					</g>
				</g>
			</g>
			<g>
				<g>
					<g class="st24">
						<path class="st2" d="M214.9,328.4h-2.5l-6.2-10.1h-0.1l0,0.6c0.1,1.1,0.1,2.1,0.1,3v6.6h-1.9v-12.7h2.5l6.2,10.1h0.1
							c0-0.1,0-0.6-0.1-1.5c0-0.8-0.1-1.5-0.1-2v-6.7h1.9V328.4z"/>
						<path class="st2" d="M226.6,323.6c0,1.6-0.4,2.8-1.2,3.7s-1.9,1.3-3.4,1.3c-0.9,0-1.7-0.2-2.4-0.6c-0.7-0.4-1.2-1-1.6-1.7
							c-0.4-0.8-0.6-1.6-0.6-2.6c0-1.6,0.4-2.8,1.2-3.6s1.9-1.3,3.4-1.3c1.4,0,2.5,0.4,3.3,1.3S226.6,322.1,226.6,323.6z
							 M219.6,323.6c0,2.2,0.8,3.3,2.5,3.3c1.6,0,2.4-1.1,2.4-3.3c0-2.2-0.8-3.3-2.4-3.3c-0.9,0-1.5,0.3-1.9,0.9
							S219.6,322.6,219.6,323.6z"/>
						<path class="st2" d="M232.5,327c0.5,0,1-0.1,1.5-0.2v1.5c-0.2,0.1-0.5,0.2-0.9,0.2c-0.4,0.1-0.7,0.1-1.1,0.1
							c-1.9,0-2.9-1-2.9-3.1v-5.2h-1.3v-0.9l1.4-0.7l0.7-2h1.3v2.1h2.7v1.5h-2.7v5.1c0,0.5,0.1,0.9,0.4,1.1S232.1,327,232.5,327z"/>
						<path class="st2" d="M246.6,328.4l-0.4-1.3h-0.1c-0.5,0.6-0.9,1-1.4,1.2c-0.5,0.2-1.1,0.3-1.8,0.3c-0.9,0-1.7-0.3-2.2-0.8
							c-0.5-0.5-0.8-1.2-0.8-2.2c0-1,0.4-1.7,1.1-2.2c0.7-0.5,1.9-0.8,3.4-0.8l1.7-0.1v-0.5c0-0.6-0.1-1.1-0.4-1.4
							c-0.3-0.3-0.7-0.5-1.3-0.5c-0.5,0-1,0.1-1.4,0.2c-0.5,0.1-0.9,0.3-1.3,0.5l-0.7-1.5c0.5-0.3,1.1-0.5,1.7-0.6
							c0.6-0.1,1.2-0.2,1.8-0.2c1.2,0,2.1,0.3,2.8,0.8c0.6,0.5,0.9,1.4,0.9,2.5v6.5H246.6z M243.5,327c0.7,0,1.3-0.2,1.8-0.6
							c0.4-0.4,0.7-1,0.7-1.7v-0.8l-1.2,0.1c-1,0-1.7,0.2-2.1,0.5c-0.4,0.3-0.7,0.7-0.7,1.3c0,0.4,0.1,0.8,0.4,1S243,327,243.5,327z
							"/>
						<path class="st2" d="M257.3,325.7c0,0.9-0.3,1.7-1,2.2c-0.7,0.5-1.7,0.8-2.9,0.8c-1.3,0-2.3-0.2-3.1-0.6v-1.8
							c1.1,0.5,2.2,0.8,3.2,0.8c1.3,0,1.9-0.4,1.9-1.1c0-0.2-0.1-0.4-0.2-0.6s-0.4-0.3-0.7-0.5c-0.3-0.2-0.8-0.4-1.3-0.6
							c-1.1-0.4-1.9-0.9-2.2-1.3s-0.6-1-0.6-1.7c0-0.8,0.3-1.5,1-1.9c0.7-0.5,1.6-0.7,2.7-0.7c1.1,0,2.2,0.2,3.2,0.7l-0.7,1.5
							c-1-0.4-1.9-0.6-2.6-0.6c-1.1,0-1.6,0.3-1.6,0.9c0,0.3,0.1,0.6,0.4,0.8c0.3,0.2,0.9,0.5,1.8,0.9c0.8,0.3,1.4,0.6,1.7,0.8
							c0.4,0.3,0.6,0.5,0.8,0.9C257.2,324.8,257.3,325.2,257.3,325.7z"/>
						<path class="st2" d="M266,325.7c0,0.9-0.3,1.7-1,2.2c-0.7,0.5-1.7,0.8-2.9,0.8c-1.3,0-2.3-0.2-3.1-0.6v-1.8
							c1.1,0.5,2.2,0.8,3.2,0.8c1.3,0,1.9-0.4,1.9-1.1c0-0.2-0.1-0.4-0.2-0.6s-0.4-0.3-0.7-0.5c-0.3-0.2-0.8-0.4-1.3-0.6
							c-1.1-0.4-1.9-0.9-2.2-1.3s-0.6-1-0.6-1.7c0-0.8,0.3-1.5,1-1.9c0.7-0.5,1.6-0.7,2.7-0.7c1.1,0,2.2,0.2,3.2,0.7l-0.7,1.5
							c-1-0.4-1.9-0.6-2.6-0.6c-1.1,0-1.6,0.3-1.6,0.9c0,0.3,0.1,0.6,0.4,0.8c0.3,0.2,0.9,0.5,1.8,0.9c0.8,0.3,1.4,0.6,1.7,0.8
							c0.4,0.3,0.6,0.5,0.8,0.9C265.9,324.8,266,325.2,266,325.7z"/>
						<path class="st2" d="M272.4,328.6c-1.5,0-2.7-0.4-3.5-1.3c-0.8-0.9-1.3-2.1-1.3-3.6c0-1.6,0.4-2.8,1.2-3.7
							c0.8-0.9,1.9-1.3,3.2-1.3c1.3,0,2.3,0.4,3,1.2c0.7,0.8,1.1,1.8,1.1,3.2v1.1h-6.4c0,0.9,0.3,1.6,0.8,2.1s1.1,0.8,2,0.8
							c0.6,0,1.1-0.1,1.6-0.2c0.5-0.1,1-0.3,1.6-0.5v1.7c-0.5,0.2-1,0.4-1.5,0.5C273.6,328.6,273,328.6,272.4,328.6z M272,320.2
							c-0.6,0-1.2,0.2-1.6,0.6s-0.6,1-0.7,1.8h4.4c0-0.8-0.2-1.4-0.6-1.8S272.7,320.2,272,320.2z"/>
						<path class="st2" d="M284.9,325.7c0,0.9-0.3,1.7-1,2.2c-0.7,0.5-1.7,0.8-2.9,0.8c-1.3,0-2.3-0.2-3.1-0.6v-1.8
							c1.1,0.5,2.2,0.8,3.2,0.8c1.3,0,1.9-0.4,1.9-1.1c0-0.2-0.1-0.4-0.2-0.6s-0.4-0.3-0.7-0.5c-0.3-0.2-0.8-0.4-1.3-0.6
							c-1.1-0.4-1.9-0.9-2.2-1.3s-0.6-1-0.6-1.7c0-0.8,0.3-1.5,1-1.9c0.7-0.5,1.6-0.7,2.7-0.7c1.1,0,2.2,0.2,3.2,0.7l-0.7,1.5
							c-1-0.4-1.9-0.6-2.6-0.6c-1.1,0-1.6,0.3-1.6,0.9c0,0.3,0.1,0.6,0.4,0.8c0.3,0.2,0.9,0.5,1.8,0.9c0.8,0.3,1.4,0.6,1.7,0.8
							c0.4,0.3,0.6,0.5,0.8,0.9C284.8,324.8,284.9,325.2,284.9,325.7z"/>
						<path class="st2" d="M293.5,325.7c0,0.9-0.3,1.7-1,2.2c-0.7,0.5-1.7,0.8-2.9,0.8c-1.3,0-2.3-0.2-3.1-0.6v-1.8
							c1.1,0.5,2.2,0.8,3.2,0.8c1.3,0,1.9-0.4,1.9-1.1c0-0.2-0.1-0.4-0.2-0.6c-0.1-0.2-0.4-0.3-0.7-0.5c-0.3-0.2-0.8-0.4-1.3-0.6
							c-1.1-0.4-1.9-0.9-2.2-1.3s-0.6-1-0.6-1.7c0-0.8,0.3-1.5,1-1.9c0.7-0.5,1.6-0.7,2.7-0.7c1.1,0,2.2,0.2,3.2,0.7l-0.7,1.5
							c-1-0.4-1.9-0.6-2.6-0.6c-1.1,0-1.6,0.3-1.6,0.9c0,0.3,0.1,0.6,0.4,0.8c0.3,0.2,0.9,0.5,1.8,0.9c0.8,0.3,1.4,0.6,1.7,0.8
							c0.4,0.3,0.6,0.5,0.8,0.9S293.5,325.2,293.5,325.7z"/>
						<path class="st2" d="M299.9,328.6c-1.5,0-2.7-0.4-3.5-1.3c-0.8-0.9-1.3-2.1-1.3-3.6c0-1.6,0.4-2.8,1.2-3.7
							c0.8-0.9,1.9-1.3,3.2-1.3c1.3,0,2.3,0.4,3,1.2c0.7,0.8,1.1,1.8,1.1,3.2v1.1h-6.4c0,0.9,0.3,1.6,0.8,2.1s1.1,0.8,2,0.8
							c0.6,0,1.1-0.1,1.6-0.2c0.5-0.1,1-0.3,1.6-0.5v1.7c-0.5,0.2-1,0.4-1.5,0.5C301.2,328.6,300.6,328.6,299.9,328.6z M299.6,320.2
							c-0.6,0-1.2,0.2-1.6,0.6s-0.6,1-0.7,1.8h4.4c0-0.8-0.2-1.4-0.6-1.8C300.7,320.4,300.2,320.2,299.6,320.2z"/>
						<path class="st2" d="M309.2,328.6c-1.2,0-2.1-0.4-2.8-1.3s-1-2.1-1-3.7c0-1.6,0.3-2.8,1-3.7c0.7-0.9,1.6-1.3,2.8-1.3
							c1.3,0,2.2,0.5,2.9,1.4h0.1c-0.1-0.7-0.1-1.2-0.1-1.6v-3.5h2v13.5h-1.6l-0.4-1.3h-0.1C311.4,328.1,310.5,328.6,309.2,328.6z
							 M309.8,327c0.8,0,1.5-0.2,1.8-0.7c0.4-0.5,0.6-1.2,0.6-2.3v-0.3c0-1.2-0.2-2.1-0.6-2.6c-0.4-0.5-1-0.8-1.8-0.8
							c-0.7,0-1.3,0.3-1.7,0.9s-0.6,1.4-0.6,2.5c0,1.1,0.2,1.9,0.6,2.4C308.5,326.7,309,327,309.8,327z"/>
					</g>
				</g>
			</g>
			<g>
				<g>
					<g class="st24">
						<path class="st27" d="M213.8,359.4H209v-13.1l0-2.2l0.1-2.4c-0.8,0.8-1.3,1.3-1.7,1.6l-2.6,2.1l-2.3-2.9l7.3-5.8h3.9V359.4z"
							/>
						<path class="st27" d="M235.9,346.4c0,4.5-0.9,7.8-2.8,10s-4.7,3.3-8.6,3.3c-1.3,0-2.4-0.1-3.1-0.2v-3.8
							c0.9,0.2,1.8,0.3,2.7,0.3c1.6,0,2.9-0.2,4-0.7s1.8-1.2,2.4-2.2s0.9-2.4,0.9-4.2h-0.2c-0.6,1-1.3,1.7-2.1,2
							c-0.8,0.4-1.8,0.6-2.9,0.6c-2,0-3.5-0.6-4.7-1.9c-1.1-1.3-1.7-3-1.7-5.3c0-2.4,0.7-4.4,2.1-5.8s3.3-2.1,5.6-2.1
							c1.7,0,3.1,0.4,4.4,1.2c1.3,0.8,2.2,1.9,2.9,3.4C235.5,342.6,235.9,344.4,235.9,346.4z M227.7,340.3c-1,0-1.8,0.3-2.3,1
							c-0.6,0.7-0.8,1.7-0.8,2.9c0,1.1,0.3,2,0.8,2.6s1.3,1,2.3,1c1,0,1.8-0.3,2.5-1c0.7-0.6,1-1.4,1-2.2c0-1.2-0.3-2.3-1-3.1
							C229.5,340.8,228.7,340.3,227.7,340.3z"/>
						<path class="st27" d="M248.7,343.5c0,2.4-0.5,4.2-1.4,5.4c-0.9,1.2-2.3,1.8-4.1,1.8c-1.7,0-3-0.6-4-1.8
							c-0.9-1.2-1.4-3-1.4-5.3c0-4.7,1.8-7.1,5.4-7.1c1.7,0,3.1,0.6,4,1.8S248.7,341.2,248.7,343.5z M241.9,343.5
							c0,1.3,0.1,2.3,0.3,2.9s0.6,1,1.1,1c1,0,1.5-1.3,1.5-3.9c0-2.6-0.5-3.9-1.5-3.9c-0.5,0-0.9,0.3-1.1,1
							C242,341.3,241.9,342.2,241.9,343.5z M259.4,336.8l-12.6,22.7h-3.7l12.6-22.7H259.4z M264.6,352.6c0,2.4-0.5,4.2-1.4,5.3
							c-0.9,1.2-2.3,1.8-4.1,1.8c-1.7,0-3-0.6-4-1.8c-0.9-1.2-1.4-3-1.4-5.3c0-4.7,1.8-7.1,5.4-7.1c1.7,0,3.1,0.6,4,1.8
							C264.2,348.6,264.6,350.3,264.6,352.6z M257.8,352.6c0,1.3,0.1,2.3,0.3,2.9s0.6,1,1.1,1c1,0,1.5-1.3,1.5-3.9
							c0-2.6-0.5-3.9-1.5-3.9c-0.5,0-0.9,0.3-1.1,1C257.9,350.3,257.8,351.3,257.8,352.6z"/>
					</g>
				</g>
			</g>
			<g>
				<g>
					<g class="st24">
						<path class="st2" d="M214.7,381.3c0,2.1-0.6,3.7-1.7,4.8c-1.2,1.1-2.8,1.7-5,1.7h-3.6v-12.7h3.9c2,0,3.6,0.5,4.7,1.6
							C214.1,377.8,214.7,379.3,214.7,381.3z M212.5,381.4c0-3-1.4-4.6-4.3-4.6h-1.8v9.2h1.5C211,386,212.5,384.5,212.5,381.4z"/>
						<path class="st2" d="M221.4,388c-1.5,0-2.7-0.4-3.5-1.3c-0.8-0.9-1.3-2.1-1.3-3.6c0-1.6,0.4-2.8,1.2-3.7
							c0.8-0.9,1.9-1.3,3.2-1.3c1.3,0,2.3,0.4,3,1.2c0.7,0.8,1.1,1.8,1.1,3.2v1.1h-6.4c0,0.9,0.3,1.6,0.8,2.1s1.1,0.8,2,0.8
							c0.6,0,1.1-0.1,1.6-0.2c0.5-0.1,1-0.3,1.6-0.5v1.7c-0.5,0.2-1,0.4-1.5,0.5C222.6,387.9,222.1,388,221.4,388z M221,379.5
							c-0.6,0-1.2,0.2-1.6,0.6s-0.6,1-0.7,1.8h4.4c0-0.8-0.2-1.4-0.6-1.8S221.7,379.5,221,379.5z"/>
						<path class="st2" d="M231,386.3c0.5,0,1-0.1,1.5-0.2v1.5c-0.2,0.1-0.5,0.2-0.9,0.2c-0.4,0.1-0.7,0.1-1.1,0.1
							c-1.9,0-2.9-1-2.9-3.1v-5.2h-1.3v-0.9l1.4-0.7l0.7-2h1.3v2.1h2.7v1.5h-2.7v5.1c0,0.5,0.1,0.9,0.4,1.1S230.6,386.3,231,386.3z"
							/>
						<path class="st2" d="M238.6,388c-1.5,0-2.7-0.4-3.5-1.3c-0.8-0.9-1.3-2.1-1.3-3.6c0-1.6,0.4-2.8,1.2-3.7
							c0.8-0.9,1.9-1.3,3.2-1.3c1.3,0,2.3,0.4,3,1.2c0.7,0.8,1.1,1.8,1.1,3.2v1.1H236c0,0.9,0.3,1.6,0.8,2.1s1.1,0.8,2,0.8
							c0.6,0,1.1-0.1,1.6-0.2c0.5-0.1,1-0.3,1.6-0.5v1.7c-0.5,0.2-1,0.4-1.5,0.5C239.9,387.9,239.3,388,238.6,388z M238.3,379.5
							c-0.6,0-1.2,0.2-1.6,0.6s-0.6,1-0.7,1.8h4.4c0-0.8-0.2-1.4-0.6-1.8C239.4,379.8,238.9,379.5,238.3,379.5z"/>
						<path class="st2" d="M249.6,378c0.4,0,0.7,0,1,0.1l-0.2,1.9c-0.3-0.1-0.6-0.1-0.9-0.1c-0.8,0-1.5,0.3-2,0.8
							c-0.5,0.5-0.8,1.2-0.8,2.1v5h-2v-9.6h1.6l0.3,1.7h0.1c0.3-0.6,0.7-1,1.2-1.4C248.4,378.2,249,378,249.6,378z"/>
						<path class="st2" d="M252.2,375.6c0-0.4,0.1-0.6,0.3-0.8c0.2-0.2,0.5-0.3,0.9-0.3c0.4,0,0.6,0.1,0.8,0.3
							c0.2,0.2,0.3,0.5,0.3,0.8c0,0.3-0.1,0.6-0.3,0.8c-0.2,0.2-0.5,0.3-0.8,0.3c-0.4,0-0.7-0.1-0.9-0.3
							C252.3,376.3,252.2,376,252.2,375.6z M254.4,387.8h-2v-9.6h2V387.8z"/>
						<path class="st2" d="M265.8,383c0,1.6-0.4,2.8-1.2,3.7s-1.9,1.3-3.4,1.3c-0.9,0-1.7-0.2-2.4-0.6c-0.7-0.4-1.2-1-1.6-1.7
							c-0.4-0.8-0.6-1.6-0.6-2.6c0-1.6,0.4-2.8,1.2-3.6s1.9-1.3,3.4-1.3c1.4,0,2.5,0.4,3.3,1.3S265.8,381.4,265.8,383z M258.8,383
							c0,2.2,0.8,3.3,2.5,3.3c1.6,0,2.4-1.1,2.4-3.3c0-2.2-0.8-3.3-2.4-3.3c-0.9,0-1.5,0.3-1.9,0.9S258.8,381.9,258.8,383z"/>
						<path class="st2" d="M273,378c0.4,0,0.8,0,1,0.1l-0.2,1.9c-0.3-0.1-0.6-0.1-0.9-0.1c-0.8,0-1.5,0.3-2,0.8
							c-0.5,0.5-0.8,1.2-0.8,2.1v5h-2v-9.6h1.6l0.3,1.7h0.1c0.3-0.6,0.7-1,1.2-1.4C271.9,378.2,272.5,378,273,378z"/>
						<path class="st2" d="M281.8,387.8l-0.4-1.3h-0.1c-0.5,0.6-0.9,1-1.4,1.2c-0.5,0.2-1.1,0.3-1.8,0.3c-0.9,0-1.7-0.3-2.2-0.8
							c-0.5-0.5-0.8-1.2-0.8-2.2c0-1,0.4-1.7,1.1-2.2c0.7-0.5,1.9-0.8,3.4-0.8l1.7-0.1v-0.5c0-0.6-0.1-1.1-0.4-1.4
							c-0.3-0.3-0.7-0.5-1.3-0.5c-0.5,0-1,0.1-1.4,0.2c-0.5,0.1-0.9,0.3-1.3,0.5l-0.7-1.5c0.5-0.3,1.1-0.5,1.7-0.6
							c0.6-0.1,1.2-0.2,1.8-0.2c1.2,0,2.1,0.3,2.8,0.8c0.6,0.5,0.9,1.4,0.9,2.5v6.5H281.8z M278.8,386.4c0.7,0,1.3-0.2,1.8-0.6
							c0.4-0.4,0.7-1,0.7-1.7v-0.8l-1.2,0.1c-1,0-1.7,0.2-2.1,0.5c-0.4,0.3-0.7,0.7-0.7,1.3c0,0.4,0.1,0.8,0.4,1
							S278.3,386.4,278.8,386.4z"/>
						<path class="st2" d="M289.7,386.3c0.5,0,1-0.1,1.5-0.2v1.5c-0.2,0.1-0.5,0.2-0.9,0.2c-0.4,0.1-0.7,0.1-1.1,0.1
							c-1.9,0-2.9-1-2.9-3.1v-5.2H285v-0.9l1.4-0.7l0.7-2h1.3v2.1h2.7v1.5h-2.7v5.1c0,0.5,0.1,0.9,0.4,1.1S289.3,386.3,289.7,386.3z
							"/>
						<path class="st2" d="M297.3,388c-1.5,0-2.7-0.4-3.5-1.3c-0.8-0.9-1.3-2.1-1.3-3.6c0-1.6,0.4-2.8,1.2-3.7
							c0.8-0.9,1.9-1.3,3.2-1.3c1.3,0,2.3,0.4,3,1.2c0.7,0.8,1.1,1.8,1.1,3.2v1.1h-6.4c0,0.9,0.3,1.6,0.8,2.1s1.1,0.8,2,0.8
							c0.6,0,1.1-0.1,1.6-0.2c0.5-0.1,1-0.3,1.6-0.5v1.7c-0.5,0.2-1,0.4-1.5,0.5C298.6,387.9,298,388,297.3,388z M297,379.5
							c-0.6,0-1.2,0.2-1.6,0.6s-0.6,1-0.7,1.8h4.4c0-0.8-0.2-1.4-0.6-1.8S297.6,379.5,297,379.5z"/>
						<path class="st2" d="M306.6,388c-1.2,0-2.1-0.4-2.8-1.3c-0.7-0.9-1-2.1-1-3.7c0-1.6,0.3-2.8,1-3.7c0.7-0.9,1.6-1.3,2.8-1.3
							c1.3,0,2.2,0.5,2.9,1.4h0.1c-0.1-0.7-0.1-1.2-0.1-1.6v-3.5h2v13.5H310l-0.4-1.3h-0.1C308.9,387.5,307.9,388,306.6,388z
							 M307.2,386.3c0.8,0,1.5-0.2,1.8-0.7s0.6-1.2,0.6-2.3V383c0-1.2-0.2-2.1-0.6-2.6c-0.4-0.5-1-0.8-1.8-0.8
							c-0.7,0-1.3,0.3-1.7,0.9c-0.4,0.6-0.6,1.4-0.6,2.5c0,1.1,0.2,1.9,0.6,2.4C305.9,386,306.4,386.3,307.2,386.3z"/>
					</g>
				</g>
			</g>
			<g>
				<g>
					<g class="st24">
						<path class="st28" d="M217.8,418.8H202v-3.3l5.7-5.8c1.7-1.7,2.8-2.9,3.3-3.6c0.5-0.7,0.9-1.3,1.1-1.9
							c0.2-0.6,0.3-1.2,0.3-1.8c0-0.9-0.3-1.6-0.8-2c-0.5-0.4-1.2-0.7-2-0.7c-0.9,0-1.7,0.2-2.6,0.6s-1.7,1-2.6,1.7l-2.6-3.1
							c1.1-1,2-1.6,2.8-2c0.7-0.4,1.5-0.7,2.4-0.9s1.8-0.3,2.9-0.3c1.4,0,2.7,0.3,3.8,0.8c1.1,0.5,1.9,1.2,2.5,2.2
							c0.6,0.9,0.9,2,0.9,3.2c0,1-0.2,2-0.6,2.9c-0.4,0.9-0.9,1.9-1.7,2.8c-0.8,1-2.1,2.3-4.1,4.1l-2.9,2.7v0.2h9.9V418.8z"/>
						<path class="st28" d="M230.6,402.9c0,2.4-0.5,4.2-1.4,5.4c-0.9,1.2-2.3,1.8-4.1,1.8c-1.7,0-3-0.6-4-1.8
							c-0.9-1.2-1.4-3-1.4-5.3c0-4.7,1.8-7.1,5.4-7.1c1.7,0,3.1,0.6,4,1.8C230.1,398.8,230.6,400.6,230.6,402.9z M223.7,402.9
							c0,1.3,0.1,2.3,0.3,2.9c0.2,0.6,0.6,1,1.1,1c1,0,1.5-1.3,1.5-3.9c0-2.6-0.5-3.9-1.5-3.9c-0.5,0-0.9,0.3-1.1,1
							C223.8,400.6,223.7,401.6,223.7,402.9z M241.3,396.1l-12.6,22.7H225l12.6-22.7H241.3z M246.5,411.9c0,2.4-0.5,4.2-1.4,5.3
							c-0.9,1.2-2.3,1.8-4.1,1.8c-1.7,0-3-0.6-4-1.8c-0.9-1.2-1.4-3-1.4-5.3c0-4.7,1.8-7.1,5.4-7.1c1.7,0,3.1,0.6,4,1.8
							C246,407.9,246.5,409.6,246.5,411.9z M239.6,412c0,1.3,0.1,2.3,0.3,2.9s0.6,1,1.1,1c1,0,1.5-1.3,1.5-3.9
							c0-2.6-0.5-3.9-1.5-3.9c-0.5,0-0.9,0.3-1.1,1C239.7,409.7,239.6,410.6,239.6,412z"/>
					</g>
				</g>
			</g>
			<g>
				<g>
					<g class="st24">
						<path class="st2" d="M74.9,430.9l-0.3,2.5l2.5-0.7l0.2,1.2l-2.4,0.2l1.6,2.1l-1.1,0.6l-1.1-2.3l-1,2.3l-1.1-0.6l1.5-2.1
							l-2.4-0.2l0.2-1.2l2.5,0.7l-0.3-2.5H74.9z"/>
						<path class="st2" d="M80.3,440.8h-1.1v-9.3h5.2v1h-4.1v3.4h3.8v1h-3.8V440.8z"/>
						<path class="st2" d="M85.6,431.9c0-0.2,0.1-0.4,0.2-0.5s0.3-0.2,0.4-0.2c0.2,0,0.3,0.1,0.4,0.2s0.2,0.3,0.2,0.5
							c0,0.2-0.1,0.4-0.2,0.5s-0.3,0.2-0.4,0.2c-0.2,0-0.3-0.1-0.4-0.2S85.6,432.2,85.6,431.9z M86.8,440.8h-1.1v-7h1.1V440.8z"/>
						<path class="st2" d="M94.7,433.8v0.7l-1.3,0.2c0.1,0.1,0.2,0.3,0.3,0.6s0.1,0.5,0.1,0.8c0,0.7-0.2,1.2-0.7,1.6
							s-1.1,0.6-1.9,0.6c-0.2,0-0.4,0-0.6-0.1c-0.4,0.2-0.7,0.5-0.7,0.9c0,0.2,0.1,0.3,0.2,0.4s0.4,0.1,0.8,0.1h1.2
							c0.8,0,1.3,0.2,1.7,0.5c0.4,0.3,0.6,0.8,0.6,1.4c0,0.8-0.3,1.4-0.9,1.8s-1.5,0.6-2.7,0.6c-0.9,0-1.6-0.2-2.1-0.5
							c-0.5-0.3-0.7-0.8-0.7-1.4c0-0.4,0.1-0.8,0.4-1.1c0.3-0.3,0.7-0.5,1.1-0.6c-0.2-0.1-0.3-0.2-0.4-0.4c-0.1-0.2-0.2-0.4-0.2-0.6
							c0-0.3,0.1-0.5,0.2-0.7c0.1-0.2,0.3-0.4,0.6-0.6c-0.4-0.1-0.7-0.4-0.9-0.8c-0.2-0.4-0.3-0.8-0.3-1.2c0-0.8,0.2-1.3,0.7-1.8
							c0.5-0.4,1.1-0.6,1.9-0.6c0.4,0,0.7,0,1,0.1H94.7z M89.2,441.9c0,0.4,0.2,0.7,0.5,0.9c0.3,0.2,0.8,0.3,1.4,0.3
							c0.9,0,1.5-0.1,2-0.4c0.4-0.3,0.6-0.6,0.6-1.1c0-0.4-0.1-0.6-0.3-0.8c-0.2-0.1-0.7-0.2-1.3-0.2h-1.3c-0.5,0-0.9,0.1-1.1,0.3
							S89.2,441.5,89.2,441.9z M89.7,436.1c0,0.5,0.1,0.9,0.4,1.1c0.3,0.2,0.7,0.4,1.1,0.4c1,0,1.5-0.5,1.5-1.5c0-1-0.5-1.6-1.6-1.6
							c-0.5,0-0.9,0.1-1.1,0.4S89.7,435.5,89.7,436.1z"/>
						<path class="st2" d="M97.1,433.8v4.5c0,0.6,0.1,1,0.4,1.3s0.7,0.4,1.2,0.4c0.7,0,1.3-0.2,1.6-0.6c0.3-0.4,0.5-1,0.5-1.9v-3.7
							h1.1v7H101l-0.2-0.9h-0.1c-0.2,0.3-0.5,0.6-0.9,0.8c-0.4,0.2-0.8,0.3-1.3,0.3c-0.8,0-1.5-0.2-1.9-0.6c-0.4-0.4-0.6-1-0.6-1.9
							v-4.6H97.1z"/>
						<path class="st2" d="M107.3,433.7c0.3,0,0.6,0,0.8,0.1l-0.1,1c-0.3-0.1-0.5-0.1-0.8-0.1c-0.6,0-1,0.2-1.4,0.7
							c-0.4,0.5-0.6,1-0.6,1.7v3.7h-1.1v-7h0.9l0.1,1.3h0.1c0.3-0.5,0.6-0.8,0.9-1S106.9,433.7,107.3,433.7z"/>
						<path class="st2" d="M112.4,440.9c-1,0-1.8-0.3-2.4-0.9c-0.6-0.6-0.9-1.5-0.9-2.6c0-1.1,0.3-2,0.8-2.7c0.6-0.7,1.3-1,2.2-1
							c0.9,0,1.6,0.3,2.1,0.9s0.8,1.3,0.8,2.3v0.7h-4.8c0,0.8,0.2,1.4,0.6,1.9c0.4,0.4,0.9,0.6,1.7,0.6c0.7,0,1.5-0.2,2.2-0.5v0.9
							c-0.4,0.2-0.7,0.3-1.1,0.3C113.2,440.9,112.8,440.9,112.4,440.9z M112.1,434.6c-0.6,0-1,0.2-1.3,0.5c-0.3,0.4-0.5,0.9-0.6,1.5
							h3.6c0-0.7-0.1-1.2-0.4-1.5S112.6,434.6,112.1,434.6z"/>
						<path class="st2" d="M121.2,438.9c0,0.6-0.2,1.1-0.7,1.5c-0.5,0.4-1.2,0.5-2,0.5c-0.9,0-1.6-0.1-2.2-0.4v-1
							c0.3,0.2,0.7,0.3,1.1,0.4c0.4,0.1,0.8,0.1,1.1,0.1c0.6,0,1-0.1,1.3-0.3s0.4-0.4,0.4-0.8c0-0.3-0.1-0.5-0.4-0.7
							c-0.2-0.2-0.7-0.4-1.4-0.7c-0.6-0.2-1.1-0.5-1.4-0.6c-0.3-0.2-0.5-0.4-0.6-0.6c-0.1-0.2-0.2-0.5-0.2-0.8c0-0.6,0.2-1,0.7-1.3
							s1.1-0.5,1.9-0.5c0.7,0,1.5,0.2,2.2,0.5l-0.4,0.9c-0.7-0.3-1.3-0.4-1.9-0.4c-0.5,0-0.9,0.1-1.1,0.2s-0.4,0.4-0.4,0.6
							c0,0.2,0,0.3,0.1,0.5c0.1,0.1,0.2,0.3,0.5,0.4s0.6,0.3,1.2,0.5c0.8,0.3,1.4,0.6,1.7,0.9C121.1,438,121.2,438.4,121.2,438.9z"
							/>
						<path class="st2" d="M135.2,440.8v-4.5c0-0.6-0.1-1-0.4-1.2s-0.6-0.4-1.1-0.4c-0.7,0-1.1,0.2-1.5,0.6s-0.5,1-0.5,1.7v3.9h-1.1
							v-4.5c0-0.6-0.1-1-0.4-1.2s-0.6-0.4-1.1-0.4c-0.7,0-1.1,0.2-1.5,0.6c-0.3,0.4-0.5,1-0.5,1.9v3.7h-1.1v-7h0.9l0.2,1h0.1
							c0.2-0.3,0.5-0.6,0.8-0.8c0.4-0.2,0.8-0.3,1.2-0.3c1.1,0,1.8,0.4,2.1,1.2h0.1c0.2-0.4,0.5-0.7,0.9-0.9s0.8-0.3,1.3-0.3
							c0.8,0,1.4,0.2,1.8,0.6c0.4,0.4,0.6,1,0.6,1.9v4.5H135.2z"/>
						<path class="st2" d="M142.7,440.8l-0.2-1h-0.1c-0.3,0.4-0.7,0.7-1,0.9c-0.3,0.2-0.8,0.2-1.3,0.2c-0.7,0-1.2-0.2-1.6-0.5
							c-0.4-0.4-0.6-0.9-0.6-1.5c0-1.4,1.1-2.1,3.4-2.2l1.2,0v-0.4c0-0.5-0.1-0.9-0.4-1.2c-0.2-0.3-0.6-0.4-1.1-0.4
							c-0.6,0-1.2,0.2-2,0.5l-0.3-0.8c0.3-0.2,0.7-0.3,1.1-0.4c0.4-0.1,0.8-0.2,1.2-0.2c0.8,0,1.4,0.2,1.8,0.6
							c0.4,0.4,0.6,1,0.6,1.8v4.7H142.7z M140.3,440c0.7,0,1.2-0.2,1.5-0.5c0.4-0.4,0.6-0.9,0.6-1.5v-0.6l-1.1,0
							c-0.8,0-1.4,0.2-1.8,0.4c-0.4,0.2-0.6,0.6-0.6,1.1c0,0.4,0.1,0.7,0.3,0.9C139.6,439.9,139.9,440,140.3,440z"/>
						<path class="st2" d="M144.5,433.8h1.1l1.5,4c0.3,0.9,0.5,1.6,0.6,2h0.1c0.1-0.2,0.2-0.6,0.3-1.1c0.2-0.5,0.8-2.1,1.7-4.8h1.1
							l-3,7.9c-0.3,0.8-0.6,1.3-1,1.7c-0.4,0.3-0.9,0.5-1.5,0.5c-0.3,0-0.6,0-1-0.1V443c0.2,0.1,0.5,0.1,0.8,0.1
							c0.7,0,1.2-0.4,1.5-1.2l0.4-1L144.5,433.8z"/>
						<path class="st2" d="M160.3,440.8v-4.5c0-0.6-0.1-1-0.4-1.3s-0.7-0.4-1.2-0.4c-0.7,0-1.3,0.2-1.6,0.6s-0.5,1-0.5,1.9v3.7h-1.1
							v-7h0.9l0.2,1h0.1c0.2-0.3,0.5-0.6,0.9-0.8s0.8-0.3,1.3-0.3c0.8,0,1.5,0.2,1.9,0.6s0.6,1,0.6,1.9v4.5H160.3z"/>
						<path class="st2" d="M169.5,437.3c0,1.1-0.3,2-0.9,2.7s-1.4,1-2.4,1c-0.6,0-1.2-0.1-1.7-0.4c-0.5-0.3-0.9-0.7-1.1-1.3
							c-0.3-0.5-0.4-1.2-0.4-1.9c0-1.1,0.3-2,0.9-2.7s1.4-0.9,2.4-0.9c1,0,1.7,0.3,2.3,1C169.2,435.3,169.5,436.2,169.5,437.3z
							 M164.2,437.3c0,0.9,0.2,1.6,0.5,2c0.4,0.5,0.9,0.7,1.6,0.7s1.2-0.2,1.6-0.7c0.4-0.5,0.5-1.1,0.5-2c0-0.9-0.2-1.6-0.5-2
							c-0.4-0.5-0.9-0.7-1.6-0.7c-0.7,0-1.2,0.2-1.6,0.7S164.2,436.4,164.2,437.3z"/>
						<path class="st2" d="M173.6,440c0.2,0,0.4,0,0.5,0s0.3-0.1,0.4-0.1v0.8c-0.1,0.1-0.3,0.1-0.5,0.1c-0.2,0-0.4,0.1-0.6,0.1
							c-1.3,0-2-0.7-2-2.1v-4.1h-1v-0.5l1-0.4l0.4-1.5h0.6v1.6h2v0.8h-2v4.1c0,0.4,0.1,0.7,0.3,1S173.3,440,173.6,440z"/>
						<path class="st2" d="M183.8,438.9c0,0.6-0.2,1.1-0.7,1.5c-0.5,0.4-1.2,0.5-2,0.5c-0.9,0-1.6-0.1-2.2-0.4v-1
							c0.3,0.2,0.7,0.3,1.1,0.4c0.4,0.1,0.8,0.1,1.1,0.1c0.6,0,1-0.1,1.3-0.3s0.4-0.4,0.4-0.8c0-0.3-0.1-0.5-0.4-0.7
							c-0.2-0.2-0.7-0.4-1.4-0.7c-0.6-0.2-1.1-0.5-1.4-0.6c-0.3-0.2-0.5-0.4-0.6-0.6c-0.1-0.2-0.2-0.5-0.2-0.8c0-0.6,0.2-1,0.7-1.3
							s1.1-0.5,1.9-0.5c0.7,0,1.5,0.2,2.2,0.5l-0.4,0.9c-0.7-0.3-1.3-0.4-1.9-0.4c-0.5,0-0.9,0.1-1.1,0.2s-0.4,0.4-0.4,0.6
							c0,0.2,0,0.3,0.1,0.5c0.1,0.1,0.2,0.3,0.5,0.4s0.6,0.3,1.2,0.5c0.8,0.3,1.4,0.6,1.7,0.9C183.7,438,183.8,438.4,183.8,438.9z"
							/>
						<path class="st2" d="M186.5,433.8v4.5c0,0.6,0.1,1,0.4,1.3s0.7,0.4,1.2,0.4c0.7,0,1.3-0.2,1.6-0.6c0.3-0.4,0.5-1,0.5-1.9v-3.7
							h1.1v7h-0.9l-0.2-0.9h-0.1c-0.2,0.3-0.5,0.6-0.9,0.8c-0.4,0.2-0.8,0.3-1.3,0.3c-0.8,0-1.5-0.2-1.9-0.6c-0.4-0.4-0.6-1-0.6-1.9
							v-4.6H186.5z"/>
						<path class="st2" d="M202.4,440.8v-4.5c0-0.6-0.1-1-0.4-1.2c-0.2-0.3-0.6-0.4-1.1-0.4c-0.7,0-1.1,0.2-1.5,0.6
							c-0.3,0.4-0.5,1-0.5,1.7v3.9H198v-4.5c0-0.6-0.1-1-0.4-1.2c-0.2-0.3-0.6-0.4-1.1-0.4c-0.7,0-1.1,0.2-1.5,0.6s-0.5,1-0.5,1.9
							v3.7h-1.1v-7h0.9l0.2,1h0.1c0.2-0.3,0.5-0.6,0.8-0.8c0.4-0.2,0.8-0.3,1.2-0.3c1.1,0,1.8,0.4,2.1,1.2h0.1
							c0.2-0.4,0.5-0.7,0.9-0.9s0.8-0.3,1.3-0.3c0.8,0,1.4,0.2,1.8,0.6s0.6,1,0.6,1.9v4.5H202.4z"/>
						<path class="st2" d="M213.7,439.8L213.7,439.8c-0.5,0.7-1.3,1.1-2.2,1.1c-0.9,0-1.6-0.3-2.1-0.9c-0.5-0.6-0.8-1.5-0.8-2.7
							c0-1.1,0.3-2,0.8-2.7s1.2-1,2.1-1c0.9,0,1.7,0.3,2.2,1h0.1l0-0.5l0-0.5v-2.8h1.1v9.9h-0.9L213.7,439.8z M211.6,440
							c0.7,0,1.2-0.2,1.6-0.6c0.3-0.4,0.5-1,0.5-1.9v-0.2c0-1-0.2-1.7-0.5-2.1s-0.9-0.6-1.6-0.6c-0.6,0-1.1,0.2-1.4,0.7
							c-0.3,0.5-0.5,1.2-0.5,2c0,0.9,0.2,1.6,0.5,2C210.5,439.8,211,440,211.6,440z"/>
						<path class="st2" d="M218,433.8v4.5c0,0.6,0.1,1,0.4,1.3c0.3,0.3,0.7,0.4,1.2,0.4c0.7,0,1.3-0.2,1.6-0.6
							c0.3-0.4,0.5-1,0.5-1.9v-3.7h1.1v7h-0.9l-0.2-0.9h-0.1c-0.2,0.3-0.5,0.6-0.9,0.8c-0.4,0.2-0.8,0.3-1.3,0.3
							c-0.8,0-1.5-0.2-1.9-0.6c-0.4-0.4-0.6-1-0.6-1.9v-4.6H218z"/>
						<path class="st2" d="M227.9,440.9c-1,0-1.8-0.3-2.4-0.9s-0.9-1.5-0.9-2.6c0-1.1,0.3-2,0.8-2.7c0.6-0.7,1.3-1,2.2-1
							c0.9,0,1.6,0.3,2.1,0.9s0.8,1.3,0.8,2.3v0.7h-4.8c0,0.8,0.2,1.4,0.6,1.9c0.4,0.4,0.9,0.6,1.7,0.6c0.7,0,1.5-0.2,2.2-0.5v0.9
							c-0.4,0.2-0.7,0.3-1.1,0.3C228.8,440.9,228.4,440.9,227.9,440.9z M227.6,434.6c-0.6,0-1,0.2-1.3,0.5c-0.3,0.4-0.5,0.9-0.6,1.5
							h3.6c0-0.7-0.1-1.2-0.4-1.5C228.6,434.8,228.1,434.6,227.6,434.6z"/>
						<path class="st2" d="M237.9,440c0.2,0,0.4,0,0.5,0c0.2,0,0.3-0.1,0.4-0.1v0.8c-0.1,0.1-0.3,0.1-0.5,0.1
							c-0.2,0-0.4,0.1-0.6,0.1c-1.3,0-2-0.7-2-2.1v-4.1h-1v-0.5l1-0.4l0.4-1.5h0.6v1.6h2v0.8h-2v4.1c0,0.4,0.1,0.7,0.3,1
							C237.2,439.9,237.5,440,237.9,440z"/>
						<path class="st2" d="M246.2,437.3c0,1.1-0.3,2-0.9,2.7s-1.4,1-2.4,1c-0.6,0-1.2-0.1-1.7-0.4c-0.5-0.3-0.9-0.7-1.1-1.3
							c-0.3-0.5-0.4-1.2-0.4-1.9c0-1.1,0.3-2,0.9-2.7c0.6-0.6,1.4-0.9,2.4-0.9c1,0,1.7,0.3,2.3,1
							C245.9,435.3,246.2,436.2,246.2,437.3z M240.9,437.3c0,0.9,0.2,1.6,0.5,2c0.4,0.5,0.9,0.7,1.6,0.7c0.7,0,1.2-0.2,1.6-0.7
							c0.4-0.5,0.5-1.1,0.5-2c0-0.9-0.2-1.6-0.5-2s-0.9-0.7-1.6-0.7c-0.7,0-1.2,0.2-1.6,0.7C241.1,435.7,240.9,436.4,240.9,437.3z"
							/>
						<path class="st2" d="M254.6,433.7c0.3,0,0.6,0,0.8,0.1l-0.1,1c-0.3-0.1-0.5-0.1-0.8-0.1c-0.6,0-1,0.2-1.4,0.7
							c-0.4,0.5-0.6,1-0.6,1.7v3.7h-1.1v-7h0.9l0.1,1.3h0.1c0.3-0.5,0.6-0.8,0.9-1C253.8,433.8,254.2,433.7,254.6,433.7z"/>
						<path class="st2" d="M262.7,437.3c0,1.1-0.3,2-0.9,2.7s-1.4,1-2.4,1c-0.6,0-1.2-0.1-1.7-0.4c-0.5-0.3-0.9-0.7-1.1-1.3
							c-0.3-0.5-0.4-1.2-0.4-1.9c0-1.1,0.3-2,0.9-2.7c0.6-0.6,1.4-0.9,2.4-0.9c1,0,1.7,0.3,2.3,1
							C262.5,435.3,262.7,436.2,262.7,437.3z M257.4,437.3c0,0.9,0.2,1.6,0.5,2c0.4,0.5,0.9,0.7,1.6,0.7c0.7,0,1.2-0.2,1.6-0.7
							c0.4-0.5,0.5-1.1,0.5-2c0-0.9-0.2-1.6-0.5-2c-0.4-0.5-0.9-0.7-1.6-0.7c-0.7,0-1.2,0.2-1.6,0.7
							C257.6,435.7,257.4,436.4,257.4,437.3z"/>
						<path class="st2" d="M265.6,433.8v4.5c0,0.6,0.1,1,0.4,1.3c0.3,0.3,0.7,0.4,1.2,0.4c0.7,0,1.3-0.2,1.6-0.6
							c0.3-0.4,0.5-1,0.5-1.9v-3.7h1.1v7h-0.9l-0.2-0.9h-0.1c-0.2,0.3-0.5,0.6-0.9,0.8c-0.4,0.2-0.8,0.3-1.3,0.3
							c-0.8,0-1.5-0.2-1.9-0.6c-0.4-0.4-0.6-1-0.6-1.9v-4.6H265.6z"/>
						<path class="st2" d="M277.3,440.8v-4.5c0-0.6-0.1-1-0.4-1.3c-0.3-0.3-0.7-0.4-1.2-0.4c-0.7,0-1.3,0.2-1.6,0.6
							c-0.3,0.4-0.5,1-0.5,1.9v3.7h-1.1v-7h0.9l0.2,1h0.1c0.2-0.3,0.5-0.6,0.9-0.8c0.4-0.2,0.8-0.3,1.3-0.3c0.8,0,1.5,0.2,1.9,0.6
							c0.4,0.4,0.6,1,0.6,1.9v4.5H277.3z"/>
						<path class="st2" d="M285.3,439.8L285.3,439.8c-0.5,0.7-1.3,1.1-2.2,1.1c-0.9,0-1.6-0.3-2.1-0.9c-0.5-0.6-0.8-1.5-0.8-2.7
							c0-1.1,0.3-2,0.8-2.7s1.2-1,2.1-1c0.9,0,1.7,0.3,2.2,1h0.1l0-0.5l0-0.5v-2.8h1.1v9.9h-0.9L285.3,439.8z M283.2,440
							c0.7,0,1.2-0.2,1.6-0.6c0.3-0.4,0.5-1,0.5-1.9v-0.2c0-1-0.2-1.7-0.5-2.1s-0.9-0.6-1.6-0.6c-0.6,0-1.1,0.2-1.4,0.7
							c-0.3,0.5-0.5,1.2-0.5,2c0,0.9,0.2,1.6,0.5,2C282.1,439.8,282.5,440,283.2,440z"/>
						<path class="st2" d="M288.4,431.9c0-0.2,0.1-0.4,0.2-0.5c0.1-0.1,0.3-0.2,0.4-0.2c0.2,0,0.3,0.1,0.4,0.2
							c0.1,0.1,0.2,0.3,0.2,0.5c0,0.2-0.1,0.4-0.2,0.5c-0.1,0.1-0.3,0.2-0.4,0.2c-0.2,0-0.3-0.1-0.4-0.2
							C288.5,432.4,288.4,432.2,288.4,431.9z M289.6,440.8h-1.1v-7h1.1V440.8z"/>
						<path class="st2" d="M296.6,440.8v-4.5c0-0.6-0.1-1-0.4-1.3c-0.3-0.3-0.7-0.4-1.2-0.4c-0.7,0-1.3,0.2-1.6,0.6
							c-0.3,0.4-0.5,1-0.5,1.9v3.7h-1.1v-7h0.9l0.2,1h0.1c0.2-0.3,0.5-0.6,0.9-0.8c0.4-0.2,0.8-0.3,1.3-0.3c0.8,0,1.5,0.2,1.9,0.6
							c0.4,0.4,0.6,1,0.6,1.9v4.5H296.6z"/>
						<path class="st2" d="M305.5,433.8v0.7l-1.3,0.2c0.1,0.1,0.2,0.3,0.3,0.6c0.1,0.2,0.1,0.5,0.1,0.8c0,0.7-0.2,1.2-0.7,1.6
							c-0.5,0.4-1.1,0.6-1.9,0.6c-0.2,0-0.4,0-0.6-0.1c-0.4,0.2-0.7,0.5-0.7,0.9c0,0.2,0.1,0.3,0.2,0.4c0.2,0.1,0.4,0.1,0.8,0.1h1.2
							c0.8,0,1.3,0.2,1.7,0.5c0.4,0.3,0.6,0.8,0.6,1.4c0,0.8-0.3,1.4-0.9,1.8c-0.6,0.4-1.5,0.6-2.7,0.6c-0.9,0-1.6-0.2-2.1-0.5
							s-0.7-0.8-0.7-1.4c0-0.4,0.1-0.8,0.4-1.1c0.3-0.3,0.7-0.5,1.1-0.6c-0.2-0.1-0.3-0.2-0.4-0.4c-0.1-0.2-0.2-0.4-0.2-0.6
							c0-0.3,0.1-0.5,0.2-0.7c0.1-0.2,0.3-0.4,0.6-0.6c-0.4-0.1-0.7-0.4-0.9-0.8c-0.2-0.4-0.3-0.8-0.3-1.2c0-0.8,0.2-1.3,0.7-1.8
							c0.5-0.4,1.1-0.6,1.9-0.6c0.4,0,0.7,0,1,0.1H305.5z M299.9,441.9c0,0.4,0.2,0.7,0.5,0.9c0.3,0.2,0.8,0.3,1.4,0.3
							c0.9,0,1.5-0.1,2-0.4c0.4-0.3,0.6-0.6,0.6-1.1c0-0.4-0.1-0.6-0.3-0.8c-0.2-0.1-0.7-0.2-1.3-0.2h-1.3c-0.5,0-0.9,0.1-1.1,0.3
							S299.9,441.5,299.9,441.9z M300.5,436.1c0,0.5,0.1,0.9,0.4,1.1c0.3,0.2,0.7,0.4,1.1,0.4c1,0,1.5-0.5,1.5-1.5
							c0-1-0.5-1.6-1.6-1.6c-0.5,0-0.9,0.1-1.1,0.4S300.5,435.5,300.5,436.1z"/>
					</g>
				</g>
			</g>
		</g>
		<g class="st24">
			<path class="st2" d="M107.5,38.2h-2V30c0-1,0-1.8,0.1-2.3c-0.1,0.1-0.3,0.3-0.5,0.5s-0.8,0.7-1.9,1.6l-1-1.3l3.7-2.9h1.7V38.2z"
				/>
			<path class="st2" d="M115.5,28.6h2.2l2,5.4c0.3,0.8,0.5,1.5,0.6,2.2h0.1c0.1-0.3,0.1-0.7,0.3-1.2c0.1-0.5,0.9-2.6,2.2-6.5h2.2
				l-4.1,10.9c-0.7,2-2,3-3.7,3c-0.5,0-0.9,0-1.3-0.1v-1.6c0.3,0.1,0.7,0.1,1.1,0.1c1,0,1.7-0.6,2.1-1.7l0.4-0.9L115.5,28.6z"/>
			<path class="st2" d="M130.7,38.4c-1.5,0-2.7-0.4-3.5-1.3s-1.3-2.1-1.3-3.6c0-1.6,0.4-2.8,1.2-3.7c0.8-0.9,1.9-1.3,3.2-1.3
				c1.3,0,2.3,0.4,3,1.2c0.7,0.8,1.1,1.8,1.1,3.2v1.1H128c0,0.9,0.3,1.6,0.8,2.1s1.1,0.8,2,0.8c0.6,0,1.1-0.1,1.6-0.2
				c0.5-0.1,1-0.3,1.6-0.5v1.7c-0.5,0.2-1,0.4-1.5,0.5C131.9,38.3,131.3,38.4,130.7,38.4z M130.3,30c-0.6,0-1.2,0.2-1.6,0.6
				s-0.6,1-0.7,1.8h4.4c0-0.8-0.2-1.4-0.6-1.8C131.4,30.2,130.9,30,130.3,30z"/>
			<path class="st2" d="M142.7,38.2l-0.4-1.3h-0.1c-0.5,0.6-0.9,1-1.4,1.2c-0.5,0.2-1.1,0.3-1.8,0.3c-0.9,0-1.7-0.3-2.2-0.8
				c-0.5-0.5-0.8-1.2-0.8-2.2c0-1,0.4-1.7,1.1-2.2c0.7-0.5,1.9-0.8,3.4-0.8l1.7-0.1v-0.5c0-0.6-0.1-1.1-0.4-1.4
				c-0.3-0.3-0.7-0.5-1.3-0.5c-0.5,0-1,0.1-1.4,0.2s-0.9,0.3-1.3,0.5l-0.7-1.5c0.5-0.3,1.1-0.5,1.7-0.6s1.2-0.2,1.8-0.2
				c1.2,0,2.1,0.3,2.8,0.8c0.6,0.5,0.9,1.4,0.9,2.5v6.5H142.7z M139.7,36.8c0.7,0,1.3-0.2,1.8-0.6c0.4-0.4,0.7-1,0.7-1.7v-0.8
				l-1.2,0.1c-1,0-1.7,0.2-2.1,0.5c-0.4,0.3-0.7,0.7-0.7,1.3c0,0.4,0.1,0.8,0.4,1S139.2,36.8,139.7,36.8z"/>
			<path class="st2" d="M151.9,28.4c0.4,0,0.7,0,1,0.1l-0.2,1.9c-0.3-0.1-0.6-0.1-0.9-0.1c-0.8,0-1.5,0.3-2,0.8
				c-0.5,0.5-0.8,1.2-0.8,2.1v5h-2v-9.6h1.6l0.3,1.7h0.1c0.3-0.6,0.7-1,1.2-1.4S151.3,28.4,151.9,28.4z"/>
			<path class="st2" d="M163.2,38.4c-1.5,0-2.6-0.4-3.3-1.3c-0.8-0.8-1.1-2.1-1.1-3.7c0-1.6,0.4-2.9,1.2-3.7s1.9-1.3,3.4-1.3
				c1,0,1.9,0.2,2.7,0.6l-0.6,1.6c-0.9-0.3-1.6-0.5-2.1-0.5c-1.7,0-2.5,1.1-2.5,3.3c0,1.1,0.2,1.9,0.6,2.4c0.4,0.5,1,0.8,1.8,0.8
				c0.9,0,1.8-0.2,2.6-0.7v1.8c-0.4,0.2-0.8,0.4-1.2,0.5C164.3,38.3,163.8,38.4,163.2,38.4z"/>
			<path class="st2" d="M176.6,38.2h-2v-5.9c0-0.7-0.1-1.3-0.4-1.7c-0.3-0.4-0.8-0.5-1.4-0.5c-0.9,0-1.5,0.3-1.9,0.8
				c-0.4,0.5-0.6,1.4-0.6,2.6v4.8h-2V24.7h2v3.4c0,0.5,0,1.1-0.1,1.8h0.1c0.3-0.5,0.7-0.8,1.2-1.1c0.5-0.3,1.1-0.4,1.7-0.4
				c2.3,0,3.5,1.2,3.5,3.5V38.2z"/>
			<path class="st2" d="M185.4,38.2l-0.4-1.3h-0.1c-0.5,0.6-0.9,1-1.4,1.2c-0.5,0.2-1.1,0.3-1.8,0.3c-0.9,0-1.7-0.3-2.2-0.8
				c-0.5-0.5-0.8-1.2-0.8-2.2c0-1,0.4-1.7,1.1-2.2c0.7-0.5,1.9-0.8,3.4-0.8l1.7-0.1v-0.5c0-0.6-0.1-1.1-0.4-1.4
				c-0.3-0.3-0.7-0.5-1.3-0.5c-0.5,0-1,0.1-1.4,0.2s-0.9,0.3-1.3,0.5l-0.7-1.5c0.5-0.3,1.1-0.5,1.7-0.6s1.2-0.2,1.8-0.2
				c1.2,0,2.1,0.3,2.8,0.8c0.6,0.5,0.9,1.4,0.9,2.5v6.5H185.4z M182.4,36.8c0.7,0,1.3-0.2,1.8-0.6c0.4-0.4,0.7-1,0.7-1.7v-0.8
				l-1.2,0.1c-1,0-1.7,0.2-2.1,0.5c-0.4,0.3-0.7,0.7-0.7,1.3c0,0.4,0.1,0.8,0.4,1S181.9,36.8,182.4,36.8z"/>
			<path class="st2" d="M198.2,38.2h-2v-5.9c0-0.7-0.1-1.3-0.4-1.7c-0.3-0.4-0.8-0.5-1.4-0.5c-0.9,0-1.5,0.3-1.9,0.8
				c-0.4,0.5-0.6,1.4-0.6,2.6v4.8h-2v-9.6h1.6l0.3,1.3h0.1c0.3-0.5,0.7-0.8,1.2-1.1c0.5-0.2,1.1-0.4,1.8-0.4c2.3,0,3.5,1.2,3.5,3.5
				V38.2z"/>
			<path class="st2" d="M209.1,28.6v1.1l-1.6,0.3c0.2,0.2,0.3,0.5,0.4,0.7c0.1,0.3,0.1,0.6,0.1,0.9c0,1-0.3,1.8-1,2.3
				c-0.7,0.6-1.6,0.9-2.8,0.9c-0.3,0-0.6,0-0.8-0.1c-0.4,0.3-0.7,0.6-0.7,1c0,0.2,0.1,0.4,0.3,0.5c0.2,0.1,0.6,0.2,1.1,0.2h1.7
				c1.1,0,1.9,0.2,2.4,0.7c0.5,0.5,0.8,1.1,0.8,2c0,1.1-0.4,1.9-1.3,2.5c-0.9,0.6-2.2,0.9-3.9,0.9c-1.3,0-2.3-0.2-3-0.7
				c-0.7-0.5-1-1.1-1-2c0-0.6,0.2-1.1,0.6-1.5c0.4-0.4,0.9-0.7,1.6-0.8c-0.3-0.1-0.5-0.3-0.7-0.6c-0.2-0.3-0.3-0.5-0.3-0.8
				c0-0.4,0.1-0.7,0.3-0.9c0.2-0.2,0.5-0.5,0.9-0.7c-0.5-0.2-0.9-0.6-1.2-1c-0.3-0.5-0.5-1-0.5-1.7c0-1,0.3-1.8,1-2.4
				c0.7-0.6,1.6-0.9,2.8-0.9c0.3,0,0.6,0,0.9,0.1s0.5,0.1,0.7,0.1H209.1z M201.6,39.7c0,0.4,0.2,0.8,0.6,1s1,0.4,1.7,0.4
				c1.1,0,1.9-0.2,2.5-0.5c0.5-0.3,0.8-0.7,0.8-1.3c0-0.4-0.1-0.7-0.4-0.9c-0.3-0.2-0.9-0.3-1.7-0.3h-1.5c-0.6,0-1,0.1-1.4,0.4
				C201.7,38.8,201.6,39.2,201.6,39.7z M202.4,31.7c0,0.6,0.2,1.1,0.5,1.4s0.8,0.5,1.3,0.5c1.2,0,1.8-0.6,1.8-1.9
				c0-0.6-0.1-1.1-0.4-1.4c-0.3-0.3-0.7-0.5-1.3-0.5c-0.6,0-1,0.2-1.3,0.5C202.6,30.6,202.4,31.1,202.4,31.7z"/>
			<path class="st2" d="M215.1,38.4c-1.5,0-2.7-0.4-3.5-1.3c-0.8-0.9-1.3-2.1-1.3-3.6c0-1.6,0.4-2.8,1.2-3.7
				c0.8-0.9,1.9-1.3,3.2-1.3c1.3,0,2.3,0.4,3,1.2c0.7,0.8,1.1,1.8,1.1,3.2v1.1h-6.4c0,0.9,0.3,1.6,0.8,2.1s1.1,0.8,2,0.8
				c0.6,0,1.1-0.1,1.6-0.2c0.5-0.1,1-0.3,1.6-0.5v1.7c-0.5,0.2-1,0.4-1.5,0.5C216.3,38.3,215.7,38.4,215.1,38.4z M214.7,30
				c-0.6,0-1.2,0.2-1.6,0.6s-0.6,1-0.7,1.8h4.4c0-0.8-0.2-1.4-0.6-1.8S215.4,30,214.7,30z"/>
		</g>
	</g>
</g>
</svg>
