<?xml version="1.0" encoding="utf-8"?>
<!-- Generator: Adobe Illustrator 21.0.0, SVG Export Plug-In . SVG Version: 6.00 Build 0)  -->
<svg version="1.1" id="Layer_1" xmlns="http://www.w3.org/2000/svg" xmlns:xlink="http://www.w3.org/1999/xlink" x="0px" y="0px"
	 viewBox="0 0 500 454" style="enable-background:new 0 0 500 454;" xml:space="preserve">
<style type="text/css">
	.st0{fill:#04008B;stroke:#04008B;stroke-miterlimit:10;}
	.st1{fill:#04008B;}
	.st2{fill:#FFFFFF;}
	.st3{font-family:'OpenSans-Semibold';}
	.st4{font-size:40px;}
</style>
<g>
	<path class="st0" d="M80.2,377.7v-2l2-1.8c4-3.7,5.9-5.7,5.9-8c0-1.5-0.8-2.8-3-2.8c-1.5,0-2.8,0.8-3.6,1.4l-0.9-2.3
		c1.2-1,3.1-1.7,5.2-1.7c3.7,0,5.6,2.4,5.6,5.1c0,3-2.1,5.4-5.1,8.1l-1.5,1.3v0.1h6.9v2.7H80.2V377.7z"/>
	<path class="st0" d="M106.1,369c0,5.4-2.1,8.8-6.2,8.8c-3.9,0-6-3.5-6-8.7c0-5.3,2.2-8.8,6.2-8.8
		C104.2,360.5,106.1,364.2,106.1,369z M97.1,369.2c0,4.1,1.1,6.2,2.9,6.2c1.9,0,2.9-2.3,2.9-6.3c0-3.9-0.9-6.2-2.9-6.2
		C98.3,363,97.1,365,97.1,369.2z"/>
	<path class="st0" d="M120,369c0,5.4-2.1,8.8-6.2,8.8c-3.9,0-6-3.5-6-8.7c0-5.3,2.2-8.8,6.2-8.8C118.1,360.5,120,364.2,120,369z
		 M111.1,369.2c0,4.1,1.1,6.2,2.9,6.2c1.9,0,2.9-2.3,2.9-6.3c0-3.9-0.9-6.2-2.9-6.2C112.2,363,111.1,365,111.1,369.2z"/>
	<path class="st0" d="M123.3,375.4c0.5,0.1,1,0,1.8-0.1c1.2-0.1,2.5-0.5,3.4-1.3c1.1-0.9,1.8-2.2,2.2-3.7h-0.1
		c-0.9,1-2.1,1.5-3.7,1.5c-2.9,0-5.1-2.1-5.1-5.3s2.5-6,6.1-6c3.9,0,6,3.1,6,7.2c0,3.6-1.2,6.2-2.9,7.9c-1.5,1.4-3.5,2.2-5.8,2.3
		c-0.7,0.1-1.5,0.1-1.9,0.1V375.4z M125,366.4c0,1.7,1,3.1,2.8,3.1c1.3,0,2.2-0.6,2.7-1.4c0.1-0.2,0.2-0.5,0.2-0.9
		c0-2.3-0.8-4.3-2.9-4.3C126.2,362.9,125,364.2,125,366.4z"/>
	<path class="st0" d="M135.1,378.7l6.3-18.9h2.2l-6.3,18.9H135.1z"/>
	<path class="st0" d="M149.7,363.7L149.7,363.7l-3.1,1.6l-0.5-2.4l4.1-2h2.7v16.8h-3.1L149.7,363.7L149.7,363.7z"/>
	<path class="st0" d="M170.6,369c0,5.4-2.1,8.8-6.2,8.8c-3.9,0-6-3.5-6-8.7c0-5.3,2.2-8.8,6.2-8.8
		C168.7,360.5,170.6,364.2,170.6,369z M161.6,369.2c0,4.1,1.1,6.2,2.9,6.2c1.9,0,2.9-2.3,2.9-6.3c0-3.9-0.9-6.2-2.9-6.2
		C162.8,363,161.6,365,161.6,369.2z"/>
</g>
<g>
	<path class="st0" d="M329,376.5v-2l2-1.8c4-3.7,5.9-5.7,5.9-8c0-1.5-0.8-2.8-3-2.8c-1.5,0-2.8,0.8-3.6,1.4l-0.9-2.3
		c1.2-1,3.1-1.7,5.2-1.7c3.7,0,5.6,2.4,5.6,5.1c0,3-2.1,5.4-5.1,8.1l-1.5,1.3v0.1h6.9v2.7H329V376.5z"/>
	<path class="st0" d="M354.9,368c0,5.4-2.1,8.8-6.2,8.8c-3.9,0-6-3.5-6-8.7c0-5.3,2.2-8.8,6.2-8.8C353,359.3,354.9,363,354.9,368z
		 M345.9,368.2c0,4.1,1.1,6.2,2.9,6.2c1.9,0,2.9-2.3,2.9-6.3c0-3.9-0.9-6.2-2.9-6.2C347.1,361.8,345.9,364,345.9,368.2z"/>
	<path class="st0" d="M361.9,362.5L361.9,362.5l-3.1,1.6l-0.5-2.4l4.1-2h2.7v16.8h-3.2V362.5z"/>
	<path class="st0" d="M370.8,376.5v-2l2-1.8c4-3.7,5.8-5.7,5.9-8c0-1.5-0.8-2.8-3-2.8c-1.5,0-2.8,0.8-3.6,1.4l-0.9-2.3
		c1.2-1,3.1-1.7,5.2-1.7c3.7,0,5.6,2.4,5.6,5.1c0,3-2.1,5.4-5.1,8.1l-1.5,1.3v0.1h6.9v2.7h-11.5V376.5z"/>
	<path class="st0" d="M383.9,377.5l6.3-18.9h2.2l-6.3,18.9H383.9z"/>
	<path class="st0" d="M398.5,362.5L398.5,362.5l-3.1,1.6l-0.5-2.4l4.1-2h2.7v16.8h-3.1v-14H398.5z"/>
	<path class="st0" d="M408.1,373.2c0.7,0.4,2.2,1,3.8,1c2.4,0,3.4-1.4,3.4-2.7c0-2-1.9-2.9-3.8-2.9H410v-2.3h1.4
		c1.5,0,3.4-0.7,3.4-2.4c0-1.1-0.9-2.1-2.7-2.1c-1.4,0-2.8,0.6-3.5,1.1l-0.7-2.3c1-0.7,2.8-1.3,4.9-1.3c3.5,0,5.3,1.9,5.3,4.1
		c0,1.8-1,3.2-3.1,4v0.1c2.1,0.4,3.7,1.9,3.7,4.2c0,2.9-2.4,5.1-6.6,5.1c-2.1,0-3.8-0.6-4.7-1.2L408.1,373.2z"/>
</g>
<rect x="35.3" y="212" class="st1" width="181" height="121"/>
<polygon class="st1" points="125.4,138.6 14.5,212 236.3,212 "/>
<rect x="99.8" y="284" class="st2" width="32.2" height="49"/>
<rect x="283.3" y="212" class="st1" width="181" height="121"/>
<polygon class="st1" points="373.4,138.6 262.5,212 484.3,212 "/>
<rect x="347.8" y="284" class="st2" width="32.2" height="49"/>
<text transform="matrix(1 0 0 1 33.0023 116)" class="st1 st3 st4">£216,500</text>
<text transform="matrix(1 0 0 1 296.0023 116)" class="st1 st3 st4">£225,100</text>
</svg>
