<?xml version="1.0" encoding="utf-8"?>
<!-- Generator: Adobe Illustrator 18.1.1, SVG Export Plug-In . SVG Version: 6.00 Build 0)  -->
<svg version="1.1" xmlns="http://www.w3.org/2000/svg" xmlns:xlink="http://www.w3.org/1999/xlink" x="0px" y="0px" width="600px"
	 height="600px" viewBox="0 0 600 600" enable-background="new 0 0 600 600" xml:space="preserve">
<g id="attract.svg" display="none">
	<path display="inline" fill="#424143" d="M96.5,356.1c-8.3-1-15.6,5.2-15.6,14.5l-8.3,103.8c-1,8.3,5.2,16.6,13.5,16.6l85.1,8.3
		l11.4-134L96.5,356.1z M170.3,101.7L85.1,110c-8.3,1-14.5,8.3-13.5,16.6l8.3,103.8c1,8.3,8.3,14.5,15.6,14.5l85.1-8.3L170.3,101.7z
		 M310.4,88.2l-88.3,8.3l11.4,134l88.3-8.3c2.1,0,4.2,0,6.2,0c40.5,0,73.7,35.3,73.7,77.9s-33.2,77.9-73.7,77.9c-2.1,0-4.2,0-6.2,0
		l-88.3-8.3l-11.4,134l88.3,8.3c6.2,0,11.4,1,17.7,1c110.1,0,200.4-95.5,200.4-212.9S438.2,87.1,328.1,87.1
		C322.9,87.1,316.7,88.2,310.4,88.2z"/>
</g>
<g id="block.svg" display="none">
	<g display="inline">
		<path fill="#6B6C6C" d="M392.9,299.1V104.8c0-5.8-4.7-10.6-10.6-10.6H197c-5.8,0-10.6,4.7-10.6,10.6v194.3H82.1
			c-5.8,0-10.6,4.7-10.6,10.6v185.5c0,5.8,4.7,10.6,10.6,10.6h209.5c5.8,0,10.6-4.7,10.6-10.6V312.7h14.4V495
			c0,5.8,4.7,10.6,10.6,10.6h190.9c5.8,0,10.6-4.7,10.6-10.6V309.6c0-5.8-4.7-10.6-10.6-10.6h-125V299.1z M267.8,478.5H146.1
			c-3.8,0-6.8-3-6.8-6.8V333c0-3.8,3-6.8,6.8-6.8h121.7c3.8,0,6.8,3,6.8,6.8v138.7C274.6,475.5,271.5,478.5,267.8,478.5z
			 M360.1,273.8H219.5c-3.3,0-5.8-2.6-5.8-5.8V127.4c0-3.3,2.6-5.8,5.8-5.8h140.6c3.3,0,5.8,2.6,5.8,5.8v140.6
			C366,271.1,363.2,273.8,360.1,273.8z M372.7,472.6V332.1c0-3.3,2.6-5.8,5.8-5.8h123.8c3.3,0,5.8,2.6,5.8,5.8v140.6
			c0,3.3-2.6,5.8-5.8,5.8H378.6C375.3,478.5,372.7,475.9,372.7,472.6z"/>
		<path fill="#6B6C6C" d="M199.3,458.1h26.4V357.4h-19.1c-3.4,12.2-10.3,15.5-26.4,15.6v16.5h19.1V458.1z"/>
		<path fill="#6B6C6C" d="M272.3,209.8c-11.5,11.8-15,24.5-15,38.5h66.3v-19.9h-34.7c0.9-3,4.2-6,6.5-8.3l15.6-15.2
			c7.6-7.6,12.5-16.3,12.5-29.8c0-15-6-27.4-32.4-27.4c-13.7,0-22,3.4-26.7,9.4c-4.9,6-6.1,14.4-6.2,24.8h24.8v-4.2
			c0-11.4,3.7-13.4,7.5-13.4c4.1,0,6.8,2.7,6.8,11.3c0,7.6-2,11.4-7,16.5L272.3,209.8z"/>
		<path fill="#6B6C6C" d="M453.1,405.7v-0.3c10.6-2.4,14.1-11.8,14.1-20.1c0-17.8-6.9-27.9-31.7-27.9c-10.3,0-18,2.4-23.3,7.3
			c-5.3,4.9-8,12.5-8.3,23h23.9c0-10.7,2-14,7-14c4.6,0,6.6,2.6,6.6,10.8c0,11.7-3.7,14.2-11.5,14.2h-3.8v16.5h6.6
			c6.6,0,9.6,2.6,9.6,12.5c0,12.6-1.1,15.6-7.2,15.6c-2.8,0-4.9-1.1-6-3.7c-1.1-2.6-1.9-6.2-1.9-11.9h-24.8
			c0,24.3,10.6,32.1,33.5,32.1c21.7,0,32.8-9.8,32.8-32.4C469,416.9,465.1,407.8,453.1,405.7z"/>
	</g>
</g>
<g id="ic-brain.svg" display="none">
	<path display="inline" fill="#666666" d="M500.5,260.1c0.8-49-35.6-95.5-61.8-109.4c-21-41.9-54.3-73-84.4-78.5
		c-22.2-4-42.7,10-55,21.8c-11.4-8.4-28.6-17.8-48.8-17.8c-10.4,0-20.5,2.5-30.1,7.4c-19.2,10-47.5,42.4-59.9,67.6
		c-29.4,14.6-55.3,52.7-63.7,82.6c-3.9,14.3-3.6,25.2-1.3,33.2c-12,29-12.6,72.4-5.7,101.6c3.7,15.3,9.3,27,16.9,35.2
		c2.4,37.3,30.8,82.1,59.7,92.7c12.5,12.4,32.1,29.7,58.8,29.7c8.7,0,17.4-1.8,26.1-5.6c5.8,2.3,11.7,3.5,17.8,3.5
		c12.6,0,23.3-5,31.1-10.4c8.9,7.2,21.6,14.8,35.8,14.8c6,0,12-1.4,17.5-4c6.3,2.1,12.6,3.2,19.1,3.2c29.6,0,51.7-22.1,60.5-42.7
		c16.5-7.4,35.5-24.4,48.2-43.5c8.6-13.2,13.4-26.3,14.1-38.7c13.6-16.3,17.7-43.3,19-59.7C516.2,316.2,513.5,280.5,500.5,260.1z
		 M291.3,218.6c-13.8,2.7-32.4,1.6-53.2,30.2c-3.9,5.4-3,13.1,2,17.3c2.1,1.7,4.6,2.6,7.1,2.6c3.4,0,6.8-1.6,9.1-4.8
		c14.5-20,24.3-17.5,35.1-20.2V358c-13.7-6.2-18.5-9.9-23.5-12.1c-10.3-4.6-20.4-18-27.6-2.7c-6,12.6,10.7,21.1,16.9,25.4
		c12.5,8.7,23.5,11.6,34.3,15.9v86.1l-4,4.8c-2.4,2.8-10.3,10.1-18.3,10.1c-1.9,0-3.8-0.5-5.7-1.4c0-12.9-0.9-38.9-5.7-52.3
		c-0.1-0.3-0.2-0.4-0.3-0.6c0,0-2.9-13.1-16.1-17.8c-5.2-1.8-10.3-3.3-14.6-4c-6.4-1.1-12.2,3.6-13.1,10.3c-1,6.7,3.3,13,9.5,14.1
		c10.3,1.7,11.6,2.8,13.1,7c3.3,9.2,4.1,31.4,4.1,42.8c-20.4,9.9-36.7-2.3-52.8-18.3l-3.8-3.8l-5-1.1c-12.5-2.7-34.9-34.6-36.2-58.6
		c16.4-5.8,32.3-13.8,36.6-24.5c5.7-14,7.7-31-3.4-52.4c-3.1-6-10.1-8.2-15.6-4.8c-5.6,3.3-7.5,10.8-4.5,16.8
		c8.5,16.5,4.6,24.4,2.1,30.5c-1.6,4.1-12.6,7.3-23.3,11.1l-1.5-0.8c-1.8-1.1-5.8-6.2-8.7-18.6c-6.3-26.3-3.4-65,6.1-81.1l1.1-1.6
		c9.9-2.1,19.3-3.2,27-1.4c7,1.6,24.7,1.8,30.7,16.7c1.9,4.7,6.1,7.4,10.5,7.4c1.6,0,3.1-0.4,4.6-1c5.9-2.7,8.5-10,6-16.2
		c-5.4-13.3-26.9-26.1-46.7-30.9c-10.3-2.5-21.5-1.7-33.9,0.7c0.4-3.8,1.7-9.8,5.7-18.5c7.8-17,21-33.4,33.1-42.3
		c4.4,12.5,10.7,25.6,19.1,30.5c2.7,1.6,5.8,2.5,8.7,2.5c1.8,0,3.7-0.3,5.4-0.9c11.6-4.1,16.3,1.6,30.7-14.3
		c5.9-6.5,11.8-13,17.5-18.6c4.7-4.6,5-12.4,0.8-17.4c-4.3-5-11.5-5.4-16.2-0.8c-6,5.9-12.4,12.8-18.5,19.6
		c-8.9,9.8-10.9,8.2-18.8,6.7c-4.2-0.8-5.8-11.3-8.7-20.1l1.6-4.1c6.7-18,33.2-48.6,45.6-55c4.8-2.5,9.4-3.7,14.6-3.7
		c20,0,37.4,18.7,37.5,18.8l3.5,3.8L291.3,218.6L291.3,218.6z M478.1,342.3c-2.1,23.1-8,34.1-10.6,35.8c-10.2-3.7-14.3-3.3-20.5-5.8
		c-9.2-3.7-14.2-10.8-5.7-27.3c3.1-6,1.1-13.5-4.5-16.8c-5.6-3.3-12.5-1.2-15.6,4.8c-11.1,21.3-8.2,33.2-0.9,46.3
		c8.5,15.4,23,16.1,38.8,21.8c-0.4,4.9-2.9,11.3-7.4,18c-10.5,16-26.5,27.9-33.8,30.6c-5.3-44.6-47.7-36.5-56.7-33.7
		c-6,1.9-9.5,8.8-7.7,15.3c1.8,6.5,8.2,10.3,14.3,8.3c23.1-7.4,26.1,14.7,33.1,27.3c-2.2,7.3-13.4,22-28.5,22
		c-4.2,0-8.6-1.2-13.1-3.4l-10.2-5.2l-8.8,7.6c-1.9,1.6-3.4,1.9-4.5,1.9c-6.8,0-16.9-8.6-21.6-14.4l-0.1-0.1V363.7
		c8.7-0.4,27.4-2.4,38.5,9.6c2.2,2.5,5.2,3.7,8.2,3.7c2.9,0,5.9-1.2,8.1-3.6c4.5-4.8,4.6-12.6,0.1-17.4
		c-16.8-18.2-41.8-17.5-54.9-17v-43.8c8.1-3.3,46.1-24.2,46.1-24.2c9.3-5.1,23.7-7.6,15.3-22.6c-6-10.4-26.5,0.6-26.5,0.6
		c-1.6,2.6-26,15.1-34.8,19.4V133l0.6-0.9c5.3-7.3,21.1-24.2,33.3-21.8c16.7,3,43.1,26.7,59.9,61.2c-7.5,6.6-14.3,11.4-16.8,11.4
		c-10.9-3.9-19,2.7-25.2-13.1c-2.5-6.3-9.3-9.2-15-6.6c-5.9,2.7-8.6,9.9-6.1,16.1c9.5,24.3,27.3,27.8,45.3,27.9
		c11.7,0.1,25.2-9.8,36-20.1c11.4,8.1,34.1,33.8,37.7,62.6c-8.6-1-16.7-0.9-24.4,0.9c-19.9,4.8-38.2,24.2-43.7,37.5
		c-2.6,6.2,0.1,13.6,6,16.2c1.5,0.7,3,1,4.6,1c4.4,0,8.6-2.7,10.5-7.4c6-14.8,20.7-21.6,27.6-23.3c5.6-1.4,12.2-1.2,19.1-0.2
		l6.5,6.4C474.5,285.3,481,310.6,478.1,342.3z"/>
</g>
<g id="ic-bug.svg" display="none">
	<g display="inline">
		<path fill="#5F6060" d="M509,347.1c10.8,0,19.5-8.7,19.5-19.5c0-10.8-8.7-19.5-19.5-19.5h-86c0.5-7.8,0.7-15.1,0.8-21.5
			c76.5-51.5,64.9-143.9,64.3-148c-1.5-10.6-11.2-18-21.9-16.6c-10.6,1.4-18.1,11.2-16.7,21.8c0.4,3.3,9.7,81.3-58.9,117.3
			c0,0,0,0,0,0c-24.8,13.9-56.9,22.2-91,22.2c0,0,0,0,0,0c-32.2-0.2-62.3-7.7-86.4-20.4c-0.9-0.7-1.9-1.3-2.9-1.9
			c-69.3-35.8-60.2-114.1-59.7-117.7c1.4-10.6-6-20.4-16.7-21.9c-10.7-1.5-20.5,6-21.9,16.7c-0.6,4.1-12.1,95.8,63.4,147.4
			c0,6.7,0.2,14.4,0.8,22.7H91c-10.8,0-19.5,8.7-19.5,19.5c0,10.8,8.7,19.5,19.5,19.5h89.9c0.5,2.6,1.1,5.3,1.7,7.9
			C114.8,376.3,88,435,83.4,469.1c-1.4,10.7,6,20.5,16.7,21.9c0.9,0.1,1.8,0.2,2.6,0.2c9.6,0,18-7.1,19.3-16.9
			c0.4-3,9.4-63.2,73-82.4c5.3,10.8,11.9,20.5,20.3,27.9c27.3,24.1,35.1,27.8,46.1,35c8.5,5.5,23-2.9,23-14.2c0-26.2,0-87,0-87
			s-1.3-30.6,15.1-31.1c16.4,0.6,15.1,31.1,15.1,31.1s0,60.8,0,87c0,11.3,14.6,19.7,23,14.2c10.9-7.1,18.8-10.8,46.1-35
			c8.4-7.5,15.1-17.2,20.4-28.1c63.6,19,73.3,79.4,73.8,82.7c1.4,9.7,9.7,16.8,19.3,16.8c0.9,0,1.7-0.1,2.6-0.2
			c10.7-1.4,18.1-11.3,16.7-21.9c-4.6-34.3-31.6-93.3-100-114.3c0.6-2.6,1.1-5.1,1.6-7.7H509z"/>
		<path fill="#5F6060" d="M300,257.8L300,257.8c69.7,0,85.2-23.2,85.2-58.1c0-34.8-30.9-91-85.1-91h0c-54.2,0-85.2,56.1-85.2,91
			C214.8,234.6,230.4,257.8,300,257.8z"/>
	</g>
</g>
<g id="ic-code.svg" display="none">
	<g display="inline">
		<path fill="#5F6161" d="M247.3,198.2c8-7,16.3-21.3,16.3-32.4c0-20.7-6.8-33.2-21.9-36.5c-3-0.6-6.4-0.7-9.4-0.1
			c-6.1,1.2-11.6,7.6-16.1,11.7c-5.2,4.6-10.3,9.3-15.5,13.9c-6.7,6-13.5,12-20.1,18.1c-7.5,6.7-15,13.5-22.5,20.2
			c-7.5,6.7-14.9,13.4-22.4,20.1c-6.6,6-13.4,12-20,17.9c-5.1,4.5-10.2,9.1-15.3,13.6c-2.7,2.5-5.4,4.8-8.1,7.3
			c-0.3,0.2-0.5,0.5-0.7,0.6c-9.4,8.1-20.1,26.8-20.1,46.5c0,21.7,10.5,40.3,20.1,48.7l133.8,119.4l0.2,0.2
			c2.8,2.7,6.7,3.2,10.6,3.2c10,0,18-5.7,21.8-12.6c3.6-6.6,5.5-13.5,5.5-23.2c0-14.3-9.5-26.4-16.3-32.4l-105.4-89.4
			c-7.6-6.6-7.7-18.4,0-24.9L247.3,198.2z"/>
		<path fill="#5F6161" d="M508.5,253c-1.5-1.3-2.9-2.6-4.4-3.9c-3.9-3.5-7.8-7-11.7-10.6c-5.7-5.1-11.4-10.2-17.1-15.4
			c-6.8-6.1-13.6-12.2-20.4-18.3c-7.2-6.5-14.5-12.9-21.7-19.5c-6.9-6.3-13.9-12.5-20.8-18.7c-6-5.4-12-10.8-18-16.2
			c-4.4-3.9-8.8-7.9-13.2-11.8c-2.2-1.9-4.3-4.3-6.7-5.9c-3.5-2.5-7.2-3.3-11.6-3.3c-3.8,0-10.3,1.7-13.5,5
			c-6.4,6.5-11.7,18.3-11.6,31.4c0,11.2,7.5,25.6,15.7,32.4l105.7,90.3c7.6,6.5,7.6,18.2,0,24.7l-105.7,89.6
			c-6.7,5.9-16.3,18-16.3,32.4c0,12.1,3.6,27.5,15,33.8c7.6,4.3,18.1,2.1,24.4-3.5c3.3-2.9,6.6-5.9,9.9-8.8
			c5.3-4.7,10.6-9.5,15.8-14.2c6.6-5.9,13.2-11.7,19.7-17.7c7.2-6.5,14.4-12.8,21.6-19.3c7.1-6.4,14.3-12.7,21.4-19
			c6.4-5.6,12.7-11.4,19.1-17c4.9-4.4,9.8-8.7,14.7-13.1c2.7-2.5,5.5-4.9,8.3-7.4c0.4-0.4,0.7-0.6,1.1-1c9.6-8.4,20.1-27,20.1-48.7
			C528.6,279.7,517.9,261.1,508.5,253z"/>
	</g>
</g>
<g id="ic-conversation.svg" display="none">
	<g display="inline">
		<path fill="#5F6060" d="M204,350.3V208.6h-86.8c-25.1,0-45.7,20.6-45.7,45.7v137.1c0,25.1,20.6,45.7,45.7,45.7h22.9v68.5
			l68.6-68.5h114.2c25.1,0,45.7-20.6,45.7-45.7v-41.6c-1.5,0.3-3,0.5-4.6,0.5L204,350.3L204,350.3z M482.8,94.4H277.2
			c-25.1,0-45.7,20.6-45.7,45.7v182.8h159.9l68.6,68.5v-68.5h22.8c25.1,0,45.7-20.6,45.7-45.7V140.1
			C528.5,114.9,507.9,94.4,482.8,94.4z"/>
	</g>
</g>
<g id="ic-cornerstone.svg" display="none">
	<g display="inline">
		<polygon fill="#FFFFFF" points="414.4,275.9 414.4,71.5 163.5,226.3 372.8,301.3 		"/>
		<polygon opacity="0.5" fill="#FFFFFF" enable-background="new    " points="373.3,301.3 164.1,430.7 436.5,528.5 436.5,324.1 		
			"/>
		<polygon opacity="0.8" fill="#FFFFFF" enable-background="new    " points="163.8,226.3 163.8,430.7 373.1,301.3 		"/>
	</g>
</g>
<g id="ic-envelope" display="none">
	<path display="inline" fill="#5F6060" d="M506.3,142.5H93.7c-12.3,0-22.2,9.9-22.2,22.2v270.7c0,12.3,9.9,22.2,22.2,22.2h412.6
		c12.3,0,22.2-9.9,22.2-22.2V164.7C528.5,152.4,518.6,142.5,506.3,142.5z M503.2,221.8l-110.4,85.9c0,0,74.2,63.1,78.4,67
		c4.6,4.2,9.9,16.3,0,25.2c-11.2,10.1-22.4,0-22.4,0l-83.1-70.3c0,0-37.5,29.4-54.4,42.4c-4.6,3.6-13.8,3.9-19.4-0.9
		c-3.4-2.8-53.5-41.8-53.5-41.8s-78.3,66.4-83.5,70.8c-5.6,4.7-15.5,6.5-22.8-1.1c-9.1-9.4-3.4-20.8,0.6-24.2
		c3.6-3,78.8-66.7,78.8-66.7S106.2,226.4,102,222.9c-5-4.1-9.3-13.8-2.7-22.8c8.5-11.8,22.6-4.6,22.6-4.6l180.4,141.2
		c0,0,175.4-137.6,179.4-140.7c3.9-3.1,15.7-5.9,23.6,4.5C513,211,503.2,221.8,503.2,221.8z"/>
</g>
<g id="ic-exclamation.svg" display="none">
	<path display="inline" fill="#5F6161" d="M526.3,478l-212-372c-2.9-5.1-8.4-8.3-14.4-8.3s-11.4,3.2-14.4,8.3l-212,372
		c-2.9,5-2.8,11.2,0.1,16.2s8.4,8.1,14.3,8.1h424c5.9,0,11.3-3.1,14.3-8.1C529.2,489.2,529.3,483.1,526.3,478z M300.1,462.7
		c-13.1,0-23.7-10.6-23.7-23.7s10.6-23.7,23.7-23.7s23.7,10.6,23.7,23.7C323.8,452.1,313.2,462.7,300.1,462.7z M321.5,375.7
		c0,8.9-7.2,16-16.2,16h-10.4c-9,0-16.2-7.1-16.2-16l-14.1-147.3c0-8.9,7.2-16,16.2-16h38.6c9,0,16.2,7.1,16.2,16L321.5,375.7z"/>
</g>
<g id="ic-home" display="none">
	<g display="inline">
		<path fill="#5F6060" d="M522.7,307.6L318.9,103.7c-10.4-10.8-27.5-10.8-37.9,0L77.3,307.6c-10.4,10.8-6.5,19.6,8.6,19.6h42.5
			v156.6c0,11.3,0.5,20.5,20.9,20.5h98.9V347.3h103.5v157.1h103.8c15.6,0,16-9.2,16-20.5V327.3H514
			C529.2,327.3,533.1,318.4,522.7,307.6z"/>
	</g>
</g>
<g id="ic-i.svg">
	<g>
		<path fill="#5F6060" d="M355.6,71.5c30.6,0,45.9,20.9,45.9,44.7c0,29.8-26.6,57.4-61.2,57.4c-29,0-45.9-17.1-45.1-45.5
			C295.2,104.3,315.3,71.5,355.6,71.5z M261.4,528.5c-24.2,0-41.9-14.9-25-80.5l27.7-116.3c4.8-18.6,5.6-26.1,0-26.1
			c-7.3,0-38.6,12.9-57.2,25.5L194.9,311c58.8-49.9,126.4-79.2,155.4-79.2c24.2,0,28.2,29.1,16.1,73.8l-31.8,122.3
			c-5.6,21.6-3.2,29.1,2.4,29.1c7.2,0,31-9,54.4-27.6l13.7,18.6C347.9,506.1,285.5,528.5,261.4,528.5z"/>
	</g>
</g>
<g id="ic-magnifying-glass.svg" display="none">
	<g display="inline">
		<path fill="#5F6060" d="M518.2,458.1L408.9,348.8c16.5-27.1,26-58.8,26-92.9c0-98.8-85.6-184.5-184.5-184.5S71.5,151.6,71.5,250.4
			S157.1,434.9,256,434.9c32.9,0,63.7-8.9,90.1-24.4L456,520.5c10.7,10.7,28.2,10.7,38.9,0l27.2-27.2
			C532.9,482.4,529,468.9,518.2,458.1z M126.5,250.4c0-68.4,55.4-123.9,123.8-123.9c68.5,0,129.4,61,129.4,129.4
			s-55.4,123.9-123.9,123.9C187.5,379.8,126.5,318.8,126.5,250.4z"/>
	</g>
</g>
<g id="ic-money" display="none">
	<g display="inline">
		<g>
			<path fill="#5F6060" d="M279.7,481c-55.3-4.8-95.9-25.8-124.3-54.7l40.6-56.8c19.5,20.5,47.9,39,83.7,45.3v-83.2
				c-54.3-13.7-113.2-33.7-113.2-105.3c0-53.2,42.1-98.4,113.2-105.8V71.5h50v50c42.7,4.8,78.5,21.1,106.9,46.8l-41.6,54.7
				c-18.9-17.4-41.6-28.4-65.3-34.2v74.2c54.3,13.7,114.8,34.8,114.8,106.3c0,58.4-37.9,103.2-114.8,111.1v47.9h-50L279.7,481
				L279.7,481z M279.7,250v-64.2c-23.7,3.1-36.9,16.3-36.9,34.2C242.8,235.2,257.6,243.6,279.7,250z M329.8,344.2v70.6
				c25.8-5.2,39-20.5,39-36.9C368.7,360.5,352.4,351.5,329.8,344.2z"/>
		</g>
	</g>
</g>
<g id="ic-mrktplc-cornerstone.svg" display="none">
	<g id="Layer_1_1_" display="inline">
		<g>
			<polygon opacity="0.5" fill="#FFFFFF" enable-background="new    " points="97.8,528.5 290,409.1 290,251.5 97.8,370.9 			"/>
			<polygon fill="#FFFFFF" points="310,528.5 502.2,409.1 502.2,251.5 310,370.9 			"/>
			<polygon fill="#FFFFFF" points="97.8,348.5 290,229.1 290,71.5 97.8,190.9 			"/>
			<polygon opacity="0.5" fill="#FFFFFF" enable-background="new    " points="310,348.5 502.2,229.1 502.2,71.5 310,190.9 			"/>
		</g>
	</g>
</g>
<g id="ic-partner.svg" display="none">
	<g display="inline">
		<g>
			<path fill="#3C3C3B" d="M199.7,336.2c8.1-6.5,9.4-18.3,2.9-26.4c-6.5-8.1-18.3-9.4-26.4-2.9L129,346.1
				c-8.1,6.5-9.4,18.3-2.9,26.4c3.8,4.7,9.1,7,14.7,7c4.1,0,8.2-1.4,11.7-4.1L199.7,336.2z"/>
			<path fill="#3C3C3B" d="M240.4,344.5c-6.6-8-18.5-9.1-26.4-2.5l-65.5,56.1c-8,6.6-9.1,18.5-2.5,26.4c3.8,4.5,9.1,6.8,14.5,6.8
				c4.2,0,8.5-1.5,12-4.3l65.5-56.1C245.9,364.4,247,352.6,240.4,344.5z"/>
			<path fill="#3C3C3B" d="M265,394.1c-6.5-8.1-18.3-9.4-26.4-2.9l-46.4,40.1c-8.1,6.5-9.4,18.3-2.9,26.4c3.8,4.7,9.1,7,14.7,7
				c4.1,0,8.2-1.4,11.7-4.1l46.4-40.1C270.2,414.1,271.5,402.3,265,394.1z"/>
			<path fill="#3C3C3B" d="M291.5,441.6c-6.5-8.1-18.4-9.3-26.4-2.8l-28.8,25.6c-8.1,6.5-9.3,18.4-2.8,26.4c3.8,4.6,9.1,7,14.6,7
				c4.1,0,8.3-1.4,11.8-4.2l28.8-25.6C296.8,461.5,298,449.6,291.5,441.6z"/>
			<path fill="#3C3C3B" d="M525.9,197.7c0,0-64.9-76-69.2-81c-4.3-5-12.8-0.4-15.6,1.2c-2.7,1.6-31.1,12.6-51.9,14.5
				c-18.2,1.6-31.6,5.9-31.6,5.9s-43.9,13.2-68.5,20.5c-24.6,7.3-29.4,14.9-29.4,14.9L188,244.2c-1,3.3-3.2,17,18.3,20.3
				s37.2-7.3,62.9-22.7c25.6-15.5,48-20.8,63-23.2c7.7-1.3,10.4-0.4,10.4-0.4l46.5,52.9l42,46.3l9.6,10.2c0,0,0.1,0,0.3,0.1
				l27.4,28.6c0.5,0.5,3.8,4.6,5.5,9.8c1.8,5.9,0.5,10.6-4.3,15.2c-3.9,3.8-7.7,5.6-11.3,5.5c-4-0.2-8-2.7-10.2-4.8l-9.8-10.3
				L385,314.2c-4.5-4.8-12.1-5.1-16.9-0.6c-2.7,2.5-3.9,5.9-3.8,9.3c-0.1,3.1,0.9,6.3,3.3,8.8l53.3,56.5l7.5,8.1
				c0.5,0.5,1.6,1.6,3,3l5.5,5.8l0.4,0.4l0.4,0.4c1.4,1.2,6.9,7.4,7,13.2c0,1.1,0.1,4.4-4.6,9c-5.6,5.4-11,7.4-16.4,6.2
				c-3.8-0.8-6.8-3.1-7.6-3.8l-69.9-76.7c-4.5-4.9-12.1-5.2-16.9-0.8c-2.8,2.6-4.1,6.2-3.8,9.8c0.1,2.7,1.1,5.6,3.1,7.8l59.3,64.9
				l0.3,0.3c0.1,0.1,6.1,6.8,6,13.8c-0.1,3.5-1.7,6.7-5,9.9c-5.5,5.3-9.1,5-10.4,4.9c-5.5-0.4-10.9-5.5-12.5-7.6l-0.1-0.2l-47.3-54
				c-4.4-4.9-12-5.5-16.9-1.1c-3.3,2.9-4.7,7.3-3.8,11.3c0.3,2.3,1.2,4.5,2.7,6.3l36.8,43l0.5,0.6c0.5,0.5,1.9,2.7,2.2,5.2
				c0.1,1.1,0.5,4.6-4.7,9.4c-6.3,5.9-11.5,4.9-13.9,4l-9.8-9.7c-4.7-4.7-4.8-1.6-9.2,2.4c-1.1,1-6.1,6.2-7,7.1
				c-2.8,3.3-2.7,4.9-0.8,7.5l11.9,11.9l1.1,0.7c1,0.6,6.4,3.8,14.3,4.5c0.9,0.1,2,0.1,3.1,0.1c7.1,0,16.7-2.2,26.3-11.1
				c4.3-3.9,7.1-8,9-11.8c4.5,2.6,9.9,4.7,16.1,5.1c0.7,0.1,1.6,0.1,2.4,0.1c7,0,16.7-2.3,26.5-11.7c5.9-5.8,9.8-12.3,11.4-19.4
				c3.2,0.8,6.4,1.3,9.6,1.3c10.6,0,20.9-4.6,30-13.3c10.1-9.7,12-19.9,11.9-26.6c-0.1-3.1-0.5-6-1.3-8.8
				c5.8-1.5,12.4-4.7,19.1-11.2c20.9-20.1,11.3-46-0.2-58.5l-15.6-16.4c13.6-19.7,9.1-38.9,16.3-62.8c7.7-25.9,28.3-41.3,37.2-48.1
				C532.9,205.8,525.9,197.7,525.9,197.7z"/>
		</g>
		<g>
			<path fill="#3C3C3B" d="M340.9,120.8c-2.7-0.5-10.4-1.4-17-2.1c-18.7-2.2-57.6-5.6-76.2-6c-5.4-0.2-11-0.1-16.3,0
				c-7.7,0.1-16.3,0.3-19.8-0.5c-7.8-1.7-30.4-11.3-42.8-16.8c-4.7-2.1-10.2-1-13.6,2.7l-80.5,85.5c-4.5,4.8-4.3,12.3,0.5,16.9
				c15.6,14.9,29,38.6,34.3,54.2c3.9,11.9,10.4,46.6,13.3,62.8c0.2,1.3,1.1,6.2,1.3,7.2c1,5.9,3.9,2.6,9.4-1.6
				c3.9-3.1,6.9-5.9,9.8-8.3c3.2-2.7,2.4-6.1,2.3-7c-0.3-1.6-0.6-3.4-0.9-5.2c-3.1-16.8-8.3-43.9-12.2-55.6
				c-5.1-15.3-16.9-37.7-32.3-55.4l67-71.2c11,4.8,30.2,12.8,39.4,14.9c6.3,1.5,15.2,1.3,25.4,1.2c5.1-0.1,10.3-0.2,15.3,0
				c10.2,0.3,30.6,1.3,49.4,2.7l49.8-16.4C345.8,122.1,343.4,121.2,340.9,120.8z"/>
		</g>
	</g>
</g>
<g id="ic-people.svg" display="none">
	<g display="inline">
		<path fill="#5F6060" d="M248.4,141.8c-74.5,2.8-70.3,64.7-70.3,73.5c2.2,54.9,30.8,94.5,30.8,94.5s-2.2,13.2-2.2,35.2
			C88,373.6,71.5,413.2,71.5,413.2v45.1h176.9h1.1h176.8v-45.1c0,0-16.5-39.6-135.2-68.1c0-22-2.2-35.2-2.2-35.2
			s28.6-39.6,30.8-94.5c0-8.7,4.3-70.7-70.3-73.5"/>
		<path fill="#5F6060" d="M419.2,210.8c46.1,1.7,43.4,40,43.4,45.4c-1.4,33.9-19,58.3-19,58.3s1.4,8.2,1.4,21.7
			c73.3,17.7,83.4,42,83.4,42v27.8h-68.2l0,0c1,2.9-17.8-40.4-90.4-63.2c0,0,15.8-5,22.9-6.8c0-13.6,1.4-21.7,1.4-21.7
			s-17.7-24.5-19-58.3c0-5.4-2.7-43.7,43.4-45.4L419.2,210.8L419.2,210.8z"/>
	</g>
</g>
<g id="ic-person-add.svg" display="none">
	<g display="inline">
		<path fill="#5F6060" d="M391.4,329.9c-20.4-9.2-47.6-18.8-83.3-27.3c0-23.6-2.4-37.7-2.4-37.7s30.6-42.4,33-101.3
			c0-9.4,4.6-75.8-75.4-78.9h-0.9l0,0c-0.1,0-0.1,0-0.2,0h-1.2c-79.9,3-75.4,69.4-75.4,78.9c2.4,58.9,33,101.3,33,101.3
			s-2.4,14.1-2.4,37.7c-127.2,30.6-144.8,73-144.8,73v48.3h189.6h1.2h0.2h0.9h57.2h4.8C327.5,381.5,354.2,345.6,391.4,329.9z"/>
		<path fill="#5F6060" d="M516.3,411.6h-55.5V356c0-12.3-12.2-12.3-17.9-12.3c-5.9,0-17.9,0-17.9,12.3v55.5h-55.6
			c-12.3,0-12.3,12.2-12.3,17.9c0,5.9,0,17.9,12.3,17.9h55.5V503c0,12.3,12.2,12.3,17.9,12.3c5.9,0,17.9,0,17.9-12.3v-55.5h55.5
			c12.3,0,12.3-12.2,12.3-17.9C528.6,423.6,528.6,411.6,516.3,411.6z"/>
	</g>
</g>
<g id="ic-phone" display="none">
	<g display="inline">
		<path fill="#5F6060" d="M264.2,327.8c-35.6-47.2-68.5-100.6-46.9-116.9c30.9-23.3,56.9-36.8,17.2-103.3
			c-39.7-66.5-78.2-25.1-108.1-2.5c-34.6,26.1-21.6,143.1,74.5,270.5C297,502.9,406,547.4,440.6,521.3c30-22.6,80.3-48.2,27.3-104.6
			c-53.1-56.4-73.1-35.1-104-11.8C342.2,421.2,299.8,375,264.2,327.8z"/>
	</g>
</g>
<g id="ic-rocket.svg" display="none">
	<path display="inline" fill="#5F6060" d="M358.9,366.7c0,0,183.3-132.3,163-283.6c-0.5-3.3-1.6-5.5-2.9-7c-1.4-1.4-3.6-2.6-6.9-3
		C364.1,52.3,234.8,239.9,234.8,239.9c-112.2-13.4-103.9,9-155.2,131.8c-9.8,23.4,6.1,31.5,23.5,24.9c17.4-6.6,55.8-21,55.8-21
		l67.2,68.8c0,0-14.2,39.3-20.6,57.1c-6.4,17.8,1.5,34,24.3,24.1C350.2,473.1,372,481.4,358.9,366.7z M385.1,213.1
		c-15.6-15.9-15.6-41.6,0-57.5s40.7-15.9,56.3,0s15.6,41.6,0,57.5C425.7,228.9,400.6,228.9,385.1,213.1z"/>
</g>
<g id="ic-thumbs-down.svg" display="none">
	<path display="inline" fill="#5F6060" d="M207.4,367c3.3,9-89.9,92.3-35.5,159.7c12.7,15.8,55.9-75.5,117.2-116.9
		c33.8-22.8,112.5-71.4,112.5-98.2V138c0-32.3-124.8-66.5-219.6-66.5c-34.7,0-85.1,217.7-85.1,252.3C96.9,358.5,204,357.9,207.4,367
		z M426.9,364.5c16.7,0,76.2-10.2,76.2-79.2V162.2c0-69.1-59.5-76.7-76.2-76.7c-16.7,0,25.4,14.5,25.4,57.4v161.8
		C452.3,349.5,410.3,364.5,426.9,364.5z"/>
</g>
<g id="ic-thumbs-up.svg" display="none">
	<path display="inline" fill="#5F6060" d="M392.6,233c-3.3-9,89.9-92.3,35.5-159.7c-12.7-15.8-55.9,75.5-117.2,116.9
		c-33.8,22.8-112.5,71.4-112.5,98.2V462c0,32.3,124.8,66.5,219.6,66.5c34.7,0,85.1-217.7,85.1-252.3
		C503.1,241.5,396,242.1,392.6,233z M173.1,235.5c-16.7,0-76.2,10.2-76.2,79.2v123.1c0,69.1,59.5,76.7,76.2,76.7
		c16.7,0-25.4-14.5-25.4-57.4V295.4C147.7,250.5,189.7,235.5,173.1,235.5z"/>
</g>
<g id="sell.svg" display="none">
	<path display="inline" fill="#424143" d="M294.6,72.1H71.5v223.1l233.9,232.7l223.1-223.1L294.6,72.1z M131.2,162.8
		c-16.7,0-31-14.3-31-31s14.3-31,31-31s31,14.3,31,31C162.2,148.5,149.1,162.8,131.2,162.8z"/>
</g>
<g id="walkme.svg" display="none">
	<path display="inline" fill="#454545" d="M471.4,100.1H128.6c-32,0-57.1,25.1-57.1,57.1v199.9c0,32,25.1,57.1,57.1,57.1h114.2
		l114.2,85.7v-85.7h114.2c32,0,57.1-25.1,57.1-57.1V157.2C528.5,125.2,503.4,100.1,471.4,100.1z M298.9,372
		c-14.9,0-27.4-12.6-27.4-27.4c0-14.9,12.6-27.4,27.4-27.4c16,0,27.4,12.6,27.4,27.4C327.4,360.6,314.9,372,298.9,372z M313.7,273.7
		c0,3.4,1.1,6.9,2.3,10.3c1.1,2.3,0,5.7-2.3,6.9l-27.4,8c-2.3,1.1-4.6,0-6.9-2.3c-4.6-6.9-9.1-16-9.1-26.3c0-40,50.3-45.7,50.3-68.5
		c0-11.4-8-19.4-26.3-19.4c-14.9,0-28.6,6.9-38.8,17.1c-2.3,2.3-5.7,2.3-8,0l-18.3-20.6c-2.3-3.4-2.3-9.1,1.1-12.6
		c18.3-18.3,43.4-27.4,69.7-27.4c43.4,0,70.8,22.9,70.8,54.8C370.8,240.6,313.7,244,313.7,273.7z"/>
</g>
<g id="wow.svg" display="none">
	<path display="inline" fill="#424143" d="M523.5,245.4C488.4,366.6,300,513,300,513S112.6,367.6,77.5,245.4c-4-12-6-24.1-6-37.1
		C71.5,141.2,125.6,87,193.8,87c51.1,0,90.2,31.1,106.2,76.2l0,0l0,0C316,118.1,355.1,87,406.2,87c67.1,0,122.3,54.1,122.3,122.3
		C528.5,221.3,526.5,234.4,523.5,245.4z"/>
</g>
<g id="ic-print.svg" display="none">
	<g display="inline">
		<path fill="#5E5F5F" d="M101.8,245.4h396.4c13.3,0,11.1-14.2,4.5-16.5c-6.6-2.3-80.3-30.1-93.1-30.1h-21v-97.5H211.4v97.5h-21
			c-12.8,0-86.5,27.8-93.1,30.1C90.7,231.3,88.5,245.4,101.8,245.4z M502.9,271.1H97.1c-12.8,0-25.6,15.2-25.6,28v81.6
			c0,12.8,12.8,28,25.6,28h46.2l-20.6,90h354.4l-20.6-90h46.2c12.8,0,25.6-15.2,25.6-28v-81.6C528.5,286.2,515.7,271.1,502.9,271.1z
			 M169.4,452l32.6-97.5h195.9l32.6,97.5H169.4z"/>
	</g>
</g>
<g id="guides">
</g>
</svg>
