<?xml version="1.0" encoding="utf-8"?>
<!-- Generator: Adobe Illustrator 21.0.0, SVG Export Plug-In . SVG Version: 6.00 Build 0)  -->
<svg version="1.1" id="Layer_1" xmlns="http://www.w3.org/2000/svg" xmlns:xlink="http://www.w3.org/1999/xlink" x="0px" y="0px"
	 viewBox="0 0 500 454" style="enable-background:new 0 0 500 454;" xml:space="preserve">
<style type="text/css">
	.st0{fill:#d0bdd4;stroke:#d0bdd4;stroke-width:5;stroke-miterlimit:10;}
	.st1{fill:#d0bdd4;}
	.st2{fill:none;stroke:#d0bdd4;stroke-width:5;stroke-miterlimit:10;}
	.st3{fill:none;stroke:#d0bdd4;stroke-width:5;stroke-miterlimit:10;stroke-dasharray:12.2681,12.2681;}
	.st4{fill:#d0bdd4;stroke:#d0bdd4;stroke-miterlimit:10;}
</style>
<line class="st0" x1="33.8" y1="298.1" x2="145.6" y2="120"/>
<g>
	<line class="st1" x1="472.8" y1="223.9" x2="145.6" y2="120"/>
	<g>
		<line class="st2" x1="472.8" y1="223.9" x2="467" y2="222"/>
		<line class="st3" x1="455.4" y1="218.3" x2="157.2" y2="123.7"/>
		<line class="st2" x1="151.3" y1="121.8" x2="145.6" y2="120"/>
	</g>
</g>
<g>
	<path class="st4" d="M46.1,386v-2l2-1.8c4-3.7,5.9-5.7,5.9-8c0-1.5-0.8-2.8-3-2.8c-1.5,0-2.8,0.8-3.6,1.4l-0.9-2.3
		c1.2-1,3.1-1.7,5.2-1.7c3.7,0,5.6,2.4,5.6,5.1c0,3-2.1,5.4-5.1,8.1l-1.5,1.3v0.1h6.9v2.7H46.1z"/>
	<path class="st4" d="M72,377.4c0,5.4-2.1,8.8-6.2,8.8c-3.9,0-6-3.5-6-8.7c0-5.3,2.2-8.8,6.2-8.8C70.1,368.8,72,372.5,72,377.4z
		 M63,377.6c0,4.1,1.1,6.2,2.9,6.2c1.9,0,2.9-2.3,2.9-6.3c0-3.9-0.9-6.2-2.9-6.2C64.2,371.3,63,373.4,63,377.6z"/>
	<path class="st4" d="M85.9,377.4c0,5.4-2.1,8.8-6.2,8.8c-3.9,0-6-3.5-6-8.7c0-5.3,2.2-8.8,6.2-8.8C84,368.8,85.9,372.5,85.9,377.4z
		 M77,377.6c0,4.1,1.1,6.2,2.9,6.2c1.9,0,2.9-2.3,2.9-6.3c0-3.9-0.9-6.2-2.9-6.2C78.1,371.3,77,373.4,77,377.6z"/>
	<path class="st4" d="M87.7,381.7c0-2.1,1.2-3.5,3.2-4.4v-0.1c-1.8-0.9-2.6-2.3-2.6-3.7c0-2.8,2.4-4.6,5.6-4.6
		c3.6,0,5.3,2.2,5.3,4.3c0,1.4-0.8,2.9-2.6,3.8v0.1c1.8,0.7,3.2,2.2,3.2,4.3c0,3-2.5,5-6.2,5C89.7,386.3,87.7,384,87.7,381.7z
		 M96.6,381.5c0-1.7-1.3-2.7-3.1-3.2c-1.6,0.5-2.5,1.6-2.5,3c-0.1,1.4,1,2.7,2.8,2.7C95.5,384,96.6,383,96.6,381.5z M91.3,373.3
		c0,1.4,1.1,2.2,2.8,2.7c1.1-0.3,2.1-1.3,2.1-2.5c0-1.2-0.7-2.4-2.4-2.4C92.2,371,91.3,372.1,91.3,373.3z"/>
</g>
<g>
	<path class="st4" d="M138.1,386v-2l2-1.8c4-3.7,5.9-5.7,5.9-8c0-1.5-0.8-2.8-3-2.8c-1.5,0-2.8,0.8-3.6,1.4l-0.9-2.3
		c1.2-1,3.1-1.7,5.2-1.7c3.7,0,5.6,2.4,5.6,5.1c0,3-2.1,5.4-5.1,8.1l-1.5,1.3v0.1h6.9v2.7H138.1z"/>
	<path class="st4" d="M164,377.4c0,5.4-2.1,8.8-6.2,8.8c-3.9,0-6-3.5-6-8.7c0-5.3,2.2-8.8,6.2-8.8C162.1,368.8,164,372.5,164,377.4z
		 M155,377.6c0,4.1,1.1,6.2,2.9,6.2c1.9,0,2.9-2.3,2.9-6.3c0-3.9-0.9-6.2-2.9-6.2C156.2,371.3,155,373.4,155,377.6z"/>
	<path class="st4" d="M177.9,377.4c0,5.4-2.1,8.8-6.2,8.8c-3.9,0-6-3.5-6-8.7c0-5.3,2.2-8.8,6.2-8.8
		C176,368.8,177.9,372.5,177.9,377.4z M169,377.6c0,4.1,1.1,6.2,2.9,6.2c1.9,0,2.9-2.3,2.9-6.3c0-3.9-0.9-6.2-2.9-6.2
		C170.1,371.3,169,373.4,169,377.6z"/>
	<path class="st4" d="M181.2,383.7c0.5,0.1,1,0,1.8-0.1c1.2-0.1,2.5-0.5,3.4-1.3c1.1-0.9,1.8-2.2,2.2-3.7l-0.1,0
		c-0.9,1-2.1,1.5-3.7,1.5c-2.9,0-5.1-2.1-5.1-5.3c0-3.2,2.5-6,6.1-6c3.9,0,6,3.1,6,7.2c0,3.6-1.2,6.2-2.9,7.9
		c-1.5,1.4-3.5,2.2-5.8,2.3c-0.7,0.1-1.5,0.1-1.9,0.1V383.7z M182.9,374.7c0,1.7,1,3.1,2.8,3.1c1.3,0,2.2-0.6,2.7-1.4
		c0.1-0.2,0.2-0.5,0.2-0.9c0-2.3-0.8-4.3-2.9-4.3C184.1,371.2,182.9,372.6,182.9,374.7z"/>
	<path class="st4" d="M193,387l6.3-18.9h2.2l-6.3,18.9H193z"/>
	<path class="st4" d="M207.6,372L207.6,372l-3.1,1.6l-0.5-2.4l4.1-2h2.7V386h-3.1V372z"/>
	<path class="st4" d="M228.5,377.4c0,5.4-2.1,8.8-6.2,8.8c-3.9,0-6-3.5-6-8.7c0-5.3,2.2-8.8,6.2-8.8
		C226.6,368.8,228.5,372.5,228.5,377.4z M219.5,377.6c0,4.1,1.1,6.2,2.9,6.2c1.9,0,2.9-2.3,2.9-6.3c0-3.9-0.9-6.2-2.9-6.2
		C220.7,371.3,219.5,373.4,219.5,377.6z"/>
</g>
<g>
	<path class="st4" d="M398.1,386v-2l2-1.8c4-3.7,5.9-5.7,5.9-8c0-1.5-0.8-2.8-3-2.8c-1.5,0-2.8,0.8-3.6,1.4l-0.9-2.3
		c1.2-1,3.1-1.7,5.2-1.7c3.7,0,5.6,2.4,5.6,5.1c0,3-2.1,5.4-5.1,8.1l-1.5,1.3v0.1h6.9v2.7H398.1z"/>
	<path class="st4" d="M424,377.4c0,5.4-2.1,8.8-6.2,8.8c-3.9,0-6-3.5-6-8.7c0-5.3,2.2-8.8,6.2-8.8C422.1,368.8,424,372.5,424,377.4z
		 M415,377.6c0,4.1,1.1,6.2,2.9,6.2c1.9,0,2.9-2.3,2.9-6.3c0-3.9-0.9-6.2-2.9-6.2C416.2,371.3,415,373.4,415,377.6z"/>
	<path class="st4" d="M431,372L431,372l-3.1,1.6l-0.5-2.4l4.1-2h2.7V386H431V372z"/>
	<path class="st4" d="M439.9,386v-2l2-1.8c4-3.7,5.8-5.7,5.9-8c0-1.5-0.8-2.8-3-2.8c-1.5,0-2.8,0.8-3.6,1.4l-0.9-2.3
		c1.2-1,3.1-1.7,5.2-1.7c3.7,0,5.6,2.4,5.6,5.1c0,3-2.1,5.4-5.1,8.1l-1.5,1.3v0.1h6.9v2.7H439.9z"/>
	<path class="st4" d="M453,387l6.3-18.9h2.2l-6.3,18.9H453z"/>
	<path class="st4" d="M467.6,372L467.6,372l-3.1,1.6l-0.5-2.4l4.1-2h2.7V386h-3.1V372z"/>
	<path class="st4" d="M477.2,382.7c0.7,0.4,2.2,1,3.8,1c2.4,0,3.4-1.4,3.4-2.7c0-2-1.9-2.9-3.8-2.9h-1.5v-2.3h1.4
		c1.5,0,3.4-0.7,3.4-2.4c0-1.1-0.9-2.1-2.7-2.1c-1.4,0-2.8,0.6-3.5,1.1l-0.7-2.3c1-0.7,2.8-1.3,4.9-1.3c3.5,0,5.3,1.9,5.3,4.1
		c0,1.8-1,3.2-3.1,4v0.1c2.1,0.4,3.7,1.9,3.7,4.2c0,2.9-2.4,5.1-6.6,5.1c-2.1,0-3.8-0.6-4.7-1.2L477.2,382.7z"/>
</g>
<circle class="st4" cx="33.8" cy="298.1" r="16.8"/>
<circle class="st4" cx="145.6" cy="120" r="16.8"/>
<circle class="st4" cx="472.8" cy="223.9" r="16.8"/>
<g>
	<path class="st4" d="M8.2,260.7v-1.4l1.8-1.7c4.3-4.1,6.3-6.3,6.3-8.8c0-1.7-0.8-3.3-3.4-3.3c-1.5,0-2.8,0.8-3.6,1.4l-0.7-1.6
		c1.2-1,2.8-1.7,4.8-1.7c3.6,0,5.2,2.5,5.2,4.9c0,3.1-2.3,5.6-5.8,9.1l-1.4,1.2v0.1H19v1.9H8.2z"/>
	<path class="st4" d="M28.6,260.7v-4.6h-7.9v-1.5l7.5-10.8h2.5v10.5h2.4v1.8h-2.4v4.6H28.6z M28.6,254.3v-5.6c0-0.9,0-1.8,0.1-2.7
		h-0.1c-0.5,1-0.9,1.7-1.4,2.5l-4.1,5.7v0.1H28.6z"/>
	<path class="st4" d="M35,259.3c0-1,0.6-1.6,1.6-1.6s1.5,0.7,1.5,1.6c0,0.9-0.6,1.6-1.6,1.6C35.7,261,35,260.3,35,259.3z"/>
	<path class="st4" d="M40.8,258.1c0.7,0.4,2.2,1.1,3.7,1.1c2.9,0,3.8-1.9,3.8-3.3c0-2.4-2.2-3.4-4.4-3.4h-1.3v-1.7H44
		c1.7,0,3.8-0.9,3.8-2.9c0-1.4-0.9-2.5-3-2.5c-1.4,0-2.7,0.6-3.4,1.1l-0.6-1.7c0.9-0.7,2.6-1.3,4.4-1.3c3.3,0,4.8,2,4.8,4
		c0,1.7-1,3.2-3.1,4v0.1c2.1,0.4,3.8,2,3.8,4.3c0,2.7-2.1,5.1-6.2,5.1c-1.9,0-3.6-0.6-4.4-1.1L40.8,258.1z"/>
</g>
<g>
	<path class="st4" d="M120.2,91.7v-1.4l1.8-1.7c4.3-4.1,6.3-6.3,6.3-8.8c0-1.7-0.8-3.3-3.4-3.3c-1.5,0-2.8,0.8-3.6,1.4l-0.7-1.6
		c1.2-1,2.8-1.7,4.8-1.7c3.6,0,5.2,2.5,5.2,4.9c0,3.1-2.3,5.6-5.8,9.1l-1.4,1.2v0.1h7.6v1.9H120.2z"/>
	<path class="st4" d="M143.6,76.7h-6.4l-0.6,4.3c0.4-0.1,0.8-0.1,1.4-0.1c1.3,0,2.6,0.3,3.6,0.9c1.3,0.8,2.4,2.2,2.4,4.3
		c0,3.3-2.6,5.8-6.3,5.8c-1.8,0-3.4-0.5-4.2-1l0.6-1.7c0.7,0.4,2.1,0.9,3.6,0.9c2.2,0,4-1.4,4-3.7c0-2.2-1.5-3.7-4.9-3.7
		c-1,0-1.7,0.1-2.3,0.2l1.1-8.1h8.1V76.7z"/>
	<path class="st4" d="M147,90.3c0-1,0.6-1.6,1.6-1.6s1.5,0.7,1.5,1.6c0,0.9-0.6,1.6-1.6,1.6C147.7,92,147,91.3,147,90.3z"/>
	<path class="st4" d="M152.2,91.7v-1.4l1.8-1.7c4.3-4.1,6.3-6.3,6.3-8.8c0-1.7-0.8-3.3-3.4-3.3c-1.5,0-2.8,0.8-3.6,1.4l-0.7-1.6
		c1.2-1,2.8-1.7,4.8-1.7c3.6,0,5.2,2.5,5.2,4.9c0,3.1-2.3,5.6-5.8,9.1l-1.4,1.2v0.1h7.6v1.9H152.2z"/>
</g>
<g>
	<path class="st4" d="M451.2,195.7v-1.4l1.8-1.7c4.3-4.1,6.3-6.3,6.3-8.8c0-1.7-0.8-3.3-3.4-3.3c-1.5,0-2.8,0.8-3.6,1.4l-0.7-1.6
		c1.2-1,2.8-1.7,4.8-1.7c3.6,0,5.2,2.5,5.2,4.9c0,3.1-2.3,5.6-5.8,9.1l-1.4,1.2v0.1h7.6v1.9H451.2z"/>
	<path class="st4" d="M471.6,195.7v-4.6h-7.9v-1.5l7.5-10.8h2.5v10.5h2.4v1.8h-2.4v4.6H471.6z M471.6,189.3v-5.6
		c0-0.9,0-1.8,0.1-2.7h-0.1c-0.5,1-0.9,1.7-1.4,2.5l-4.1,5.7v0.1H471.6z"/>
	<path class="st4" d="M478,194.3c0-1,0.7-1.6,1.6-1.6s1.5,0.7,1.5,1.6c0,0.9-0.6,1.6-1.6,1.6C478.7,196,478,195.3,478,194.3z"/>
	<path class="st4" d="M492.9,180.4c-0.5,0-1.1,0-1.7,0.1c-3.6,0.6-5.5,3.2-5.9,6h0.1c0.8-1.1,2.2-2,4.1-2c3,0,5.1,2.2,5.1,5.5
		c0,3.1-2.1,6-5.6,6c-3.6,0-6-2.8-6-7.2c0-3.3,1.2-6,2.9-7.6c1.4-1.4,3.3-2.2,5.4-2.5c0.7-0.1,1.2-0.1,1.7-0.1V180.4z M492.2,190.1
		c0-2.4-1.4-3.9-3.5-3.9c-1.4,0-2.7,0.9-3.3,2.1c-0.2,0.3-0.3,0.6-0.3,1c0.1,2.8,1.3,4.8,3.7,4.8
		C490.9,194.2,492.2,192.6,492.2,190.1z"/>
</g>
<g>
	<path class="st1" d="M273,74.1c0,6-3.7,9.2-8.1,9.2c-4.6,0-7.9-3.6-7.9-8.9c0-5.6,3.5-9.2,8.1-9.2C269.9,65.3,273,68.9,273,74.1z
		 M259.4,74.4c0,3.7,2,7.1,5.6,7.1c3.6,0,5.6-3.3,5.6-7.3c0-3.5-1.8-7.1-5.6-7.1C261.2,67.1,259.4,70.6,259.4,74.4z"/>
	<path class="st1" d="M275.8,73.9c0-1.3,0-2.4-0.1-3.4h2l0.1,2.1h0.1c0.6-1.2,2.1-2.4,4.2-2.4c1.7,0,4.4,1,4.4,5.4v7.5h-2.3v-7.3
		c0-2-0.8-3.7-2.9-3.7c-1.5,0-2.7,1.1-3.1,2.3c-0.1,0.3-0.2,0.7-0.2,1.1v7.6h-2.3V73.9z"/>
	<path class="st1" d="M290.2,64.6h2.3v18.5h-2.3V64.6z"/>
	<path class="st1" d="M297.2,70.5l2.8,7.4c0.3,0.8,0.6,1.8,0.8,2.6h0.1c0.2-0.8,0.5-1.7,0.8-2.6l2.5-7.4h2.4l-3.4,9
		c-1.6,4.3-2.8,6.5-4.3,7.9c-1.1,1-2.2,1.4-2.8,1.5l-0.6-1.9c0.6-0.2,1.3-0.5,2-1.1c0.6-0.5,1.4-1.4,1.9-2.5
		c0.1-0.2,0.2-0.4,0.2-0.5c0-0.1-0.1-0.3-0.2-0.6l-4.7-11.6H297.2z"/>
	<path class="st1" d="M314,80.5c0.7,0.4,2.2,1.1,3.7,1.1c2.9,0,3.8-1.9,3.8-3.3c0-2.4-2.2-3.4-4.4-3.4h-1.3v-1.7h1.3
		c1.7,0,3.8-0.9,3.8-2.9c0-1.4-0.9-2.5-3-2.5c-1.4,0-2.7,0.6-3.4,1.1l-0.6-1.7c0.9-0.6,2.6-1.3,4.4-1.3c3.3,0,4.8,2,4.8,4
		c0,1.7-1,3.2-3.1,4V74c2.1,0.4,3.8,2,3.8,4.3c0,2.7-2.1,5.1-6.2,5.1c-1.9,0-3.6-0.6-4.4-1.1L314,80.5z"/>
	<path class="st1" d="M333.8,70.5l2.8,7.4c0.3,0.8,0.6,1.8,0.8,2.6h0.1c0.2-0.8,0.5-1.7,0.8-2.6l2.5-7.4h2.4l-3.4,9
		c-1.6,4.3-2.8,6.5-4.3,7.9c-1.1,1-2.2,1.4-2.8,1.5l-0.6-1.9c0.6-0.2,1.3-0.5,2-1.1c0.6-0.5,1.4-1.4,1.9-2.5
		c0.1-0.2,0.2-0.4,0.2-0.5c0-0.1-0.1-0.3-0.2-0.6l-4.7-11.6H333.8z"/>
	<path class="st1" d="M346.2,77.2c0.1,3.1,2,4.4,4.3,4.4c1.6,0,2.6-0.3,3.5-0.7l0.4,1.6c-0.8,0.4-2.2,0.8-4.2,0.8
		c-3.9,0-6.2-2.5-6.2-6.3c0-3.8,2.2-6.8,5.9-6.8c4.1,0,5.2,3.6,5.2,5.9c0,0.5-0.1,0.8-0.1,1.1H346.2z M353,75.6
		c0-1.5-0.6-3.7-3.2-3.7c-2.3,0-3.3,2.1-3.5,3.7H353z"/>
	<path class="st1" d="M365,83.1l-0.2-1.6h-0.1c-0.7,1-2.1,1.9-3.8,1.9c-2.5,0-3.8-1.8-3.8-3.6c0-3,2.7-4.7,7.6-4.7v-0.3
		c0-1-0.3-2.9-2.9-2.9c-1.2,0-2.4,0.4-3.3,0.9l-0.5-1.5c1-0.7,2.5-1.1,4.1-1.1c3.8,0,4.8,2.6,4.8,5.1v4.7c0,1.1,0.1,2.2,0.2,3H365z
		 M364.6,76.7c-2.5-0.1-5.3,0.4-5.3,2.8c0,1.5,1,2.2,2.2,2.2c1.6,0,2.7-1,3-2.1c0.1-0.2,0.1-0.5,0.1-0.7V76.7z"/>
	<path class="st1" d="M370.5,74.4c0-1.5,0-2.8-0.1-3.9h2l0.1,2.5h0.1c0.6-1.7,2-2.8,3.5-2.8c0.3,0,0.4,0,0.7,0.1v2.2
		c-0.2-0.1-0.5-0.1-0.8-0.1c-1.6,0-2.8,1.2-3.1,2.9c-0.1,0.3-0.1,0.7-0.1,1.1v6.7h-2.3V74.4z"/>
	<path class="st1" d="M378.7,80.7c0.7,0.4,1.9,0.9,3,0.9c1.7,0,2.4-0.8,2.4-1.9c0-1.1-0.6-1.7-2.3-2.3c-2.3-0.8-3.3-2.1-3.3-3.6
		c0-2,1.6-3.7,4.3-3.7c1.3,0,2.4,0.4,3.1,0.8l-0.6,1.7c-0.5-0.3-1.4-0.7-2.6-0.7c-1.4,0-2.1,0.8-2.1,1.7c0,1,0.8,1.5,2.4,2.1
		c2.2,0.8,3.3,1.9,3.3,3.8c0,2.2-1.7,3.8-4.7,3.8c-1.4,0-2.7-0.3-3.5-0.9L378.7,80.7z"/>
	<path class="st1" d="M406.2,76.7c0,4.7-3.2,6.7-6.3,6.7c-3.4,0-6-2.5-6-6.5c0-4.2,2.8-6.7,6.2-6.7
		C403.8,70.2,406.2,72.8,406.2,76.7z M396.2,76.8c0,2.8,1.6,4.8,3.8,4.8c2.2,0,3.8-2.1,3.8-4.9c0-2.1-1.1-4.8-3.8-4.8
		C397.4,71.9,396.2,74.4,396.2,76.8z"/>
	<path class="st1" d="M409.3,83.1V72.2h-1.8v-1.7h1.8v-0.6c0-1.8,0.4-3.4,1.5-4.4c0.9-0.8,2-1.2,3.1-1.2c0.8,0,1.5,0.2,2,0.4
		l-0.3,1.8c-0.3-0.2-0.8-0.3-1.5-0.3c-2,0-2.4,1.7-2.4,3.6v0.7h3v1.7h-3v10.8H409.3z"/>
	<path class="st1" d="M268.8,95.8V111c0,1.1,0,2.4,0.1,3.2h-2.1l-0.1-2.2h-0.1c-0.7,1.4-2.2,2.5-4.3,2.5c-3,0-5.4-2.6-5.4-6.4
		c0-4.2,2.6-6.8,5.6-6.8c1.9,0,3.2,0.9,3.8,1.9h0.1v-7.5H268.8z M266.5,106.8c0-0.3,0-0.7-0.1-1c-0.3-1.5-1.6-2.7-3.3-2.7
		c-2.4,0-3.8,2.1-3.8,4.9c0,2.5,1.2,4.7,3.7,4.7c1.5,0,2.9-1,3.4-2.7c0.1-0.3,0.1-0.6,0.1-1V106.8z"/>
	<path class="st1" d="M279.5,114.3l-0.2-1.6h-0.1c-0.7,1-2.1,1.9-3.8,1.9c-2.5,0-3.8-1.8-3.8-3.6c0-3,2.7-4.7,7.6-4.7V106
		c0-1-0.3-2.9-2.9-2.9c-1.2,0-2.4,0.4-3.3,0.9l-0.5-1.5c1-0.7,2.5-1.1,4.1-1.1c3.8,0,4.8,2.6,4.8,5.1v4.7c0,1.1,0.1,2.2,0.2,3H279.5
		z M279.2,107.9c-2.5-0.1-5.3,0.4-5.3,2.8c0,1.5,1,2.2,2.2,2.2c1.6,0,2.7-1,3-2.1c0.1-0.2,0.1-0.5,0.1-0.7V107.9z"/>
	<path class="st1" d="M287.7,98.1v3.6h3.3v1.7h-3.3v6.8c0,1.6,0.4,2.4,1.7,2.4c0.6,0,1-0.1,1.3-0.2l0.1,1.7c-0.4,0.2-1.1,0.3-2,0.3
		c-1.1,0-1.9-0.3-2.5-1c-0.7-0.7-0.9-1.8-0.9-3.3v-6.9h-2v-1.7h2v-3L287.7,98.1z"/>
	<path class="st1" d="M300.6,114.3l-0.2-1.6h-0.1c-0.7,1-2.1,1.9-3.8,1.9c-2.5,0-3.8-1.8-3.8-3.6c0-3,2.7-4.7,7.6-4.7V106
		c0-1-0.3-2.9-2.9-2.9c-1.2,0-2.4,0.4-3.3,0.9l-0.5-1.5c1-0.7,2.5-1.1,4.1-1.1c3.8,0,4.8,2.6,4.8,5.1v4.7c0,1.1,0.1,2.2,0.2,3H300.6
		z M300.2,107.9c-2.5-0.1-5.3,0.4-5.3,2.8c0,1.5,1,2.2,2.2,2.2c1.6,0,2.7-1,3-2.1c0.1-0.2,0.1-0.5,0.1-0.7V107.9z"/>
	<path class="st1" d="M314.2,98.2c0,0.8-0.5,1.4-1.5,1.4c-0.8,0-1.4-0.6-1.4-1.4c0-0.8,0.6-1.4,1.4-1.4
		C313.6,96.7,314.2,97.4,314.2,98.2z M311.6,114.3v-12.6h2.3v12.6H311.6z"/>
	<path class="st1" d="M317.4,111.9c0.7,0.4,1.9,0.9,3,0.9c1.7,0,2.4-0.8,2.4-1.9c0-1.1-0.6-1.7-2.3-2.3c-2.3-0.8-3.3-2.1-3.3-3.6
		c0-2,1.6-3.7,4.3-3.7c1.3,0,2.4,0.4,3.1,0.8l-0.6,1.7c-0.5-0.3-1.4-0.7-2.6-0.7c-1.4,0-2.1,0.8-2.1,1.7c0,1,0.8,1.5,2.4,2.1
		c2.2,0.8,3.3,1.9,3.3,3.8c0,2.2-1.7,3.8-4.7,3.8c-1.4,0-2.7-0.3-3.5-0.9L317.4,111.9z"/>
	<path class="st1" d="M340.5,114.3l-0.2-1.6h-0.1c-0.7,1-2.1,1.9-3.8,1.9c-2.5,0-3.8-1.8-3.8-3.6c0-3,2.7-4.7,7.6-4.7V106
		c0-1-0.3-2.9-2.9-2.9c-1.2,0-2.4,0.4-3.3,0.9l-0.5-1.5c1-0.7,2.5-1.1,4.1-1.1c3.8,0,4.8,2.6,4.8,5.1v4.7c0,1.1,0.1,2.2,0.2,3H340.5
		z M340.2,107.9c-2.5-0.1-5.3,0.4-5.3,2.8c0,1.5,1,2.2,2.2,2.2c1.6,0,2.7-1,3-2.1c0.1-0.2,0.1-0.5,0.1-0.7V107.9z"/>
	<path class="st1" d="M346.7,101.7l2.5,7.1c0.4,1.1,0.8,2.2,1,3.2h0.1c0.3-1,0.7-2.1,1.1-3.2l2.4-7.1h2.4l-4.9,12.6h-2.2l-4.8-12.6
		H346.7z"/>
	<path class="st1" d="M365.2,114.3l-0.2-1.6H365c-0.7,1-2.1,1.9-3.8,1.9c-2.5,0-3.8-1.8-3.8-3.6c0-3,2.7-4.7,7.6-4.7V106
		c0-1-0.3-2.9-2.9-2.9c-1.2,0-2.4,0.4-3.3,0.9l-0.5-1.5c1-0.7,2.5-1.1,4.1-1.1c3.8,0,4.8,2.6,4.8,5.1v4.7c0,1.1,0.1,2.2,0.2,3H365.2
		z M364.9,107.9c-2.5-0.1-5.3,0.4-5.3,2.8c0,1.5,1,2.2,2.2,2.2c1.6,0,2.7-1,3-2.1c0.1-0.2,0.1-0.5,0.1-0.7V107.9z"/>
	<path class="st1" d="M373.3,98.2c0,0.8-0.5,1.4-1.5,1.4c-0.8,0-1.4-0.6-1.4-1.4c0-0.8,0.6-1.4,1.4-1.4
		C372.8,96.7,373.3,97.4,373.3,98.2z M370.8,114.3v-12.6h2.3v12.6H370.8z"/>
	<path class="st1" d="M376.9,95.8h2.3v18.5h-2.3V95.8z"/>
	<path class="st1" d="M390,114.3l-0.2-1.6h-0.1c-0.7,1-2.1,1.9-3.8,1.9c-2.5,0-3.8-1.8-3.8-3.6c0-3,2.7-4.7,7.6-4.7V106
		c0-1-0.3-2.9-2.9-2.9c-1.2,0-2.4,0.4-3.3,0.9l-0.5-1.5c1-0.7,2.5-1.1,4.1-1.1c3.8,0,4.8,2.6,4.8,5.1v4.7c0,1.1,0.1,2.2,0.2,3H390z
		 M389.6,107.9c-2.5-0.1-5.3,0.4-5.3,2.8c0,1.5,1,2.2,2.2,2.2c1.6,0,2.7-1,3-2.1c0.1-0.2,0.1-0.5,0.1-0.7V107.9z"/>
	<path class="st1" d="M395.4,114.3c0.1-0.9,0.1-2.1,0.1-3.2V95.8h2.3v7.9h0.1c0.8-1.4,2.3-2.3,4.3-2.3c3.1,0,5.3,2.6,5.3,6.4
		c0,4.5-2.8,6.7-5.6,6.7c-1.8,0-3.3-0.7-4.2-2.4h-0.1l-0.1,2.1H395.4z M397.8,109.2c0,0.3,0.1,0.6,0.1,0.8c0.4,1.6,1.8,2.7,3.4,2.7
		c2.4,0,3.8-2,3.8-4.8c0-2.5-1.3-4.7-3.7-4.7c-1.6,0-3,1.1-3.5,2.8c-0.1,0.3-0.1,0.6-0.1,0.9V109.2z"/>
	<path class="st1" d="M410.3,95.8h2.3v18.5h-2.3V95.8z"/>
	<path class="st1" d="M417.7,108.4c0.1,3.1,2,4.4,4.3,4.4c1.6,0,2.6-0.3,3.5-0.7l0.4,1.6c-0.8,0.4-2.2,0.8-4.2,0.8
		c-3.9,0-6.2-2.5-6.2-6.3c0-3.8,2.2-6.8,5.9-6.8c4.1,0,5.2,3.6,5.2,5.9c0,0.5-0.1,0.8-0.1,1.1H417.7z M424.5,106.8
		c0-1.5-0.6-3.7-3.2-3.7c-2.3,0-3.3,2.1-3.5,3.7H424.5z"/>
</g>
</svg>
